# Blender v2.78 (sub 0) OBJ File: 'AFA.blend'
# www.blender.org
mtllib afa.mtl
o Shape1.001
v 1.000000 0.502500 -0.125000
v 0.812500 0.502500 -0.125000
v 0.812500 0.565000 -0.125000
v 1.000000 0.565000 -0.125000
v 0.812500 0.502500 0.000000
v 1.000000 0.502500 0.000000
v 1.000000 0.565000 0.000000
v 0.812500 0.565000 0.000000
v 1.000000 0.000000 0.000000
v 0.000000 0.000000 0.000000
v 0.000000 0.065000 0.000000
v 1.000000 0.065000 0.000000
v 0.000000 0.000000 1.000000
v 1.000000 0.000000 1.000000
v 1.000000 0.065000 1.000000
v 0.000000 0.065000 1.000000
v 1.000000 0.064680 0.000000
v 0.812500 0.065204 0.000000
v 0.812500 0.877500 0.000000
v 1.000000 0.877500 0.000000
v 0.812500 0.065000 0.187500
v 1.000000 0.065000 0.187500
v 1.000000 0.877500 0.187500
v 0.812500 0.877500 0.187500
v 1.000000 0.821250 0.125000
v 0.812500 0.821250 0.125000
v 0.812500 0.883750 0.125000
v 1.000000 0.883750 0.125000
v 1.000000 0.821250 0.062500
v 0.812500 0.821250 0.062500
v 0.812500 0.883750 0.062500
v 1.000000 0.883750 0.062500
v 0.968750 0.821250 0.156250
v 0.906250 0.821250 0.156250
v 0.906250 0.883750 0.156250
v 0.968750 0.883750 0.156250
v 1.000000 0.821250 0.062500
v 0.812500 0.821250 0.062500
v 0.812500 0.883750 0.062500
v 1.000000 0.883750 0.062500
v 1.000000 0.821250 0.125000
v 0.812500 0.821250 0.125000
v 0.812500 0.883750 0.125000
v 1.000000 0.883750 0.125000
v 0.968750 0.821250 0.156250
v 0.906250 0.821250 0.156250
v 0.906250 0.883750 0.156250
v 0.968750 0.883750 0.156250
vt 0.2500 0.0000
vt 0.2500 0.0000
vt 0.2500 0.0625
vt 0.2500 0.0625
vt 0.0781 0.8281
vt 0.1250 0.8281
vt 0.1250 0.8594
vt 0.0781 0.8594
vt 0.2500 0.1250
vt 0.2500 0.1250
vt 0.2500 0.0625
vt 0.3125 0.0625
vt 0.3125 0.1250
vt 0.2500 0.1250
vt 0.1875 0.0000
vt 0.1875 0.0625
vt 0.3125 0.0000
vt 0.3125 0.0625
vt 0.5000 0.1875
vt 0.7500 0.1875
vt 0.7500 0.2500
vt 0.5000 0.2500
vt 0.5625 0.1875
vt 0.7500 0.1875
vt 0.7500 0.2500
vt 0.5625 0.2500
vt 0.0000 0.2500
vt 0.8125 0.2500
vt 0.8125 1.0000
vt 0.0000 1.0000
vt 0.5625 0.1250
vt 0.7500 0.1250
vt 0.7500 0.2500
vt 0.5625 0.2500
vt 0.5000 0.1875
vt 0.7500 0.1875
vt 0.7500 0.2500
vt 0.5000 0.2500
vt 0.5625 0.1875
vt 0.7500 0.1875
vt 0.7500 0.2500
vt 0.5625 0.2500
vt 0.0000 0.0000
vt 0.4375 0.0000
vt 0.4375 0.1250
vt 0.0000 0.1250
vt 0.1250 0.0000
vt 0.3125 0.0000
vt 0.3125 0.0625
vt 0.1250 0.0625
vt 0.0625 0.1250
vt 0.1250 0.1250
vt 0.1250 0.2500
vt 0.0625 0.2500
vt 0.0781 0.3750
vt 0.1250 0.3750
vt 0.1250 0.4531
vt 0.0781 0.4531
vt 0.0000 0.0000
vt 0.0625 0.0000
vt 0.0625 0.0625
vt 0.0000 0.0625
vt 0.1250 0.0000
vt 0.1875 0.0000
vt 0.1875 0.0625
vt 0.1250 0.0625
vt 0.0312 0.9844
vt 0.0781 0.9844
vt 0.0781 1.0000
vt 0.0312 1.0000
vt 0.0312 0.9844
vt 0.0781 0.9844
vt 0.0781 1.0000
vt 0.0312 1.0000
vt 0.0156 0.9844
vt 0.0312 0.9844
vt 0.0312 1.0000
vt 0.0156 1.0000
vt 0.2500 0.0000
vt 0.2500 0.0625
vt 0.3125 0.0625
vt 0.3125 0.0000
vt 0.1875 0.0000
vt 0.1875 0.0625
vt 0.2500 0.0625
vt 0.2500 0.0000
vt 0.1875 0.0625
vt 0.1875 0.1250
vt 0.2500 0.1250
vt 0.2500 0.0625
vn 0.0000 0.0000 -1.0000
vn 0.0000 0.0000 1.0000
vn 0.0000 1.0000 0.0000
vn 0.0000 -1.0000 0.0000
vn 1.0000 0.0000 0.0000
vn -1.0000 0.0000 0.0000
vn -0.0014 -1.0000 0.0003
usemtl None
f 1/1/1 2/2/1 3/3/1 4/4/1
f 5/5/2 6/6/2 7/7/2 8/8/2
f 4/4/3 3/3/3 8/9/3 7/10/3
f 6/11/4 5/12/4 2/13/4 1/14/4
f 6/15/5 1/1/5 4/4/5 7/16/5
f 2/2/6 5/17/6 8/18/6 3/3/6
f 9/19/1 10/20/1 11/21/1 12/22/1
f 13/23/2 14/24/2 15/25/2 16/26/2
f 12/27/3 11/28/3 16/29/3 15/30/3
f 14/31/4 13/32/4 10/33/4 9/34/4
f 14/35/5 9/36/5 12/37/5 15/38/5
f 10/39/6 13/40/6 16/41/6 11/42/6
f 17/43/1 18/44/1 19/45/1 20/46/1
f 21/47/2 22/48/2 23/49/2 24/50/2
f 20/51/3 19/52/3 24/53/3 23/54/3
f 22/55/7 21/56/7 18/57/7 17/58/7
f 22/59/5 17/60/5 20/61/5 23/62/5
f 18/63/6 21/64/6 24/65/6 19/66/6
f 26/67/2 25/68/2 28/69/2 27/70/2
f 30/71/2 29/72/2 32/73/2 31/74/2
f 34/75/2 33/76/2 36/77/2 35/78/2
f 38/79/1 39/80/1 40/81/1 37/82/1
f 42/83/1 43/84/1 44/85/1 41/86/1
f 46/87/1 47/88/1 48/89/1 45/90/1
