# Blender v2.76 (sub 0) OBJ File: 'tmc.blend'
# www.blender.org
mtllib extractor.mtl
o cube
v 0.000000 0.000000 1.000000
v 0.000000 0.000000 0.000000
v 1.000000 0.000000 1.000000
v 1.000000 0.875000 1.000000
v 1.000000 0.000000 0.000000
v 1.000000 0.875000 0.000000
v 0.000000 1.000000 0.250000
v 1.000000 1.000000 0.750000
v 0.000000 1.000000 0.750000
v 1.000000 1.000000 0.250000
v 0.000000 0.875000 1.000000
v 0.000000 0.875000 0.000000
vt 1.000000 0.933333
vt 0.666667 0.933333
vt 0.666667 0.466667
vt 0.666667 0.592580
vt 0.666667 1.000000
vt 0.333333 1.000000
vt 0.916667 0.000000
vt 0.916667 0.116667
vt 0.833333 0.116667
vt 0.250000 0.000000
vt 0.333333 0.533333
vt 0.000000 0.533333
vt 0.750000 0.000000
vt 0.750000 0.116667
vt 0.666667 0.116667
vt 0.583333 0.000000
vt 0.666667 0.533333
vt 1.000000 0.000000
vt 1.000000 0.116667
vt 1.000000 0.466667
vt 0.833333 0.000000
vt 0.000000 0.066667
vt 0.083333 0.000000
vt 0.333333 0.066667
vt 0.666667 0.000000
vt 0.500000 0.000000
vt 0.666667 0.126503
vt 0.000000 0.650000
vn 0.000000 -1.000000 0.000000
vn 0.000000 0.000000 1.000000
vn 0.000000 1.000000 0.000000
vn 1.000000 0.000000 0.000000
vn 0.000000 0.894400 0.447200
vn -1.000000 0.000000 0.000000
vn 0.000000 0.000000 -1.000000
vn 0.000000 0.894400 -0.447200
usemtl None
f 2/1/1 5/2/1 3/3/1
f 11/4/2 1/5/2 3/6/2
f 10/7/3 7/8/3 9/9/3
f 8/10/4 3/11/4 5/12/4
f 8/13/5 9/14/5 11/15/5
f 7/16/6 2/17/6 1/11/6
f 6/12/7 5/11/7 2/6/7
f 6/18/8 12/19/8 7/8/8
f 1/20/1 2/1/1 3/3/1
f 4/11/2 11/4/2 3/6/2
f 8/21/3 10/7/3 9/9/3
f 5/12/4 6/22/4 10/23/4
f 10/23/4 8/10/4 5/12/4
f 4/24/4 3/11/4 8/10/4
f 4/25/5 8/13/5 11/15/5
f 1/11/6 11/24/6 9/26/6
f 9/26/6 7/16/6 1/11/6
f 12/27/6 2/17/6 7/16/6
f 12/28/7 6/12/7 2/6/7
f 10/7/8 6/18/8 7/8/8
