# Blender v2.78 (sub 0) OBJ File: ''
# www.blender.org
mtllib reanimator.mtl
o Glass1
v 0.990000 0.750000 0.010000
v 0.010000 0.750000 0.010000
v 0.010000 2.250000 0.010000
v 0.990000 2.250000 0.010000
v 0.010000 0.750000 0.062500
v 0.990000 0.750000 0.062500
v 0.990000 2.250000 0.062500
v 0.010000 2.250000 0.062500
v 0.750000 2.500000 0.750000
v 0.750000 2.500000 0.250000
v 0.750000 2.562500 0.250000
v 0.750000 2.562500 0.750000
v 0.250000 2.500000 0.250000
v 0.250000 2.500000 0.750000
v 0.250000 2.562500 0.750000
v 0.250000 2.562500 0.250000
v 0.914674 -0.067955 0.781250
v 0.914674 -0.067955 0.218750
v 1.201463 0.341621 0.218750
v 1.201463 0.341621 0.781250
v 0.709886 0.075439 0.218750
v 0.709886 0.075439 0.781250
v 0.996675 0.485015 0.781250
v 0.996675 0.485015 0.218750
v 0.010000 0.750000 0.010000
v 0.010000 0.750000 0.990000
v 0.010000 2.250000 0.990000
v 0.010000 2.250000 0.010000
v 0.062500 0.750000 0.990000
v 0.062500 0.750000 0.010000
v 0.062500 2.250000 0.010000
v 0.062500 2.250000 0.990000
v 0.593750 0.419240 0.024365
v 0.593750 0.531230 -0.267379
v 0.593750 0.706276 -0.200185
v 0.593750 0.594286 0.091559
v 0.406250 0.531230 -0.267379
v 0.406250 0.419240 0.024365
v 0.406250 0.594286 0.091559
v 0.406250 0.706276 -0.200185
v 1.000000 2.250000 1.000000
v 1.000000 2.250000 0.000000
v 1.000000 2.500000 0.000000
v 1.000000 2.500000 1.000000
v 0.000000 2.250000 0.000000
v 0.000000 2.250000 1.000000
v 0.000000 2.500000 1.000000
v 0.000000 2.500000 0.000000
v 1.000000 -0.000000 1.000000
v 1.000000 0.000000 0.000000
v 1.000000 0.750000 0.000000
v 1.000000 0.750000 1.000000
v 0.000000 0.000000 0.000000
v 0.000000 -0.000000 1.000000
v 0.000000 0.750000 1.000000
v 0.000000 0.750000 0.000000
v 0.593750 0.250000 0.062500
v 0.593750 0.250000 -0.250000
v 0.593750 0.437500 -0.250000
v 0.593750 0.437500 0.062500
v 0.406250 0.250000 -0.250000
v 0.406250 0.250000 0.062500
v 0.406250 0.437500 0.062500
v 0.406250 0.437500 -0.250000
v 0.990000 0.750000 0.990000
v 0.990000 0.750000 0.010000
v 0.990000 2.250000 0.010000
v 0.990000 2.250000 0.990000
v 0.937500 0.750000 0.010000
v 0.937500 0.750000 0.990000
v 0.937500 2.250000 0.990000
v 0.937500 2.250000 0.010000
v 0.010000 0.750000 0.990000
v 0.990000 0.750000 0.990000
v 0.990000 2.250000 0.990000
v 0.010000 2.250000 0.990000
v 0.990000 0.750000 0.937500
v 0.010000 0.750000 0.937500
v 0.010000 2.250000 0.937500
v 0.990000 2.250000 0.937500
vt 0.0000 0.6875
vt 1.0000 0.6875
vt 1.0000 0.8125
vt 0.0000 0.8125
vt 0.0000 0.6875
vt 1.0000 0.6875
vt 1.0000 0.8125
vt 0.0000 0.8125
vt 0.6250 0.5000
vt 0.8750 0.5000
vt 0.8750 0.5625
vt 0.6250 0.5625
vt 0.6250 0.5625
vt 0.8750 0.5625
vt 0.8750 0.6250
vt 0.6250 0.6250
vt 0.6250 0.5000
vt 0.7500 0.5000
vt 0.7500 0.5625
vt 0.6250 0.5625
vt 0.8750 0.5000
vt 1.0000 0.5000
vt 1.0000 0.5625
vt 0.8750 0.5625
vt 0.6875 0.5000
vt 0.8125 0.5000
vt 0.8125 0.5625
vt 0.6875 0.5625
vt 0.6875 0.5625
vt 0.8125 0.5625
vt 0.8125 0.6250
vt 0.6875 0.6250
vt 0.5000 0.5000
vt 0.5000 0.5625
vt 0.6875 0.5000
vt 0.8125 0.5000
vt 0.8125 0.5625
vt 0.6875 0.5625
vt 0.7500 0.5000
vt 0.9375 0.5000
vt 0.9375 0.5625
vt 0.7500 0.5625
vt 0.0000 0.4375
vt 0.5000 0.4375
vt 0.5000 0.6875
vt 0.0000 0.6875
vt 0.7500 0.5625
vt 0.8750 0.5625
vt 0.8750 0.5625
vt 0.7500 0.5625
vt 0.6875 0.5000
vt 0.7500 0.5000
vt 0.7500 0.5625
vt 0.6875 0.5625
vt 0.7500 0.5000
vt 0.8125 0.5000
vt 0.8125 0.5625
vt 0.7500 0.5625
vt 0.0000 0.6875
vt 1.0000 0.6875
vt 1.0000 0.8125
vt 0.0000 0.8125
vt -0.0000 0.6875
vt 1.0000 0.6875
vt 1.0000 0.8125
vt -0.0000 0.8125
vt 0.6250 0.5000
vt 0.8750 0.5000
vt 0.8750 0.5625
vt 0.6250 0.5625
vt 0.6250 0.5625
vt 0.8750 0.5625
vt 0.8750 0.6250
vt 0.6250 0.6250
vt 0.0000 0.8125
vt 0.3125 0.8125
vt 0.3125 1.0000
vt 0.0000 1.0000
vt 0.0000 0.8125
vt 0.3125 0.8125
vt 0.3125 1.0000
vt 0.0000 1.0000
vt 0.0000 0.8125
vt 0.3125 0.8125
vt 0.3125 1.0000
vt 0.0000 1.0000
vt 0.0000 0.8125
vt 0.3125 0.8125
vt 0.3125 1.0000
vt 0.0000 1.0000
vt 0.6875 0.5000
vt 0.6875 0.5000
vt 0.6875 0.5625
vt 0.6875 0.5625
vt 0.5000 0.8125
vt 0.5000 1.0000
vt 0.6250 0.4375
vt 0.8750 0.4375
vt 0.8750 0.5000
vt 0.6250 0.5000
vt 0.7500 0.4297
vt 1.0000 0.4297
vt 1.0000 0.4609
vt 0.7500 0.4609
vt 0.6250 0.4375
vt 0.8750 0.4375
vt 0.8750 0.5625
vt 0.6250 0.5625
vt 0.5000 0.4609
vt 0.7500 0.4609
vt 0.7500 0.5859
vt 0.5000 0.5859
vt 0.6250 0.5000
vt 0.8750 0.5000
vt 0.8750 0.5625
vt 0.5000 0.4297
vt 0.5000 0.4609
vt 0.5625 0.5000
vt 0.8125 0.5000
vt 0.8125 0.5625
vt 0.5625 0.5625
vt 0.6875 0.5000
vt 0.9375 0.5000
vt 0.9375 0.6250
vt 0.6875 0.6250
vt 0.6250 0.5000
vt 0.8750 0.5000
vt 0.8750 0.6250
vt 0.6250 0.6250
vt 0.6250 0.5000
vt 0.8750 0.5000
vt 0.8750 0.6250
vt 0.6250 0.6250
vt 0.5625 0.4375
vt 0.8125 0.4375
vt 0.8125 0.5625
vt 0.5625 0.5625
vt 0.6250 0.5000
vt 0.6250 0.6250
vt 0.0000 0.8125
vt 0.3125 0.8125
vt 0.3125 1.0000
vt 0.0000 1.0000
vt 0.0000 0.8125
vt 0.3125 0.8125
vt 0.3125 1.0000
vt 0.0000 1.0000
vt 0.0000 0.8125
vt 0.3125 0.8125
vt 0.3125 1.0000
vt 0.0000 1.0000
vt 0.0000 0.8125
vt 0.3125 0.8125
vt 0.3125 1.0000
vt 0.0000 1.0000
vt 0.0000 0.9062
vt 0.0469 0.9062
vt 0.0469 0.9297
vt 0.0000 0.9297
vt 0.5000 0.8125
vt 0.5000 1.0000
vt 0.0000 0.6875
vt 1.0000 0.6875
vt 1.0000 0.8125
vt 0.0000 0.8125
vt 0.0000 0.6875
vt 1.0000 0.6875
vt 1.0000 0.8125
vt 0.0000 0.8125
vt 0.6875 0.5000
vt 0.9375 0.5000
vt 0.9375 0.5625
vt 0.6875 0.5625
vt 0.6250 0.5625
vt 0.8750 0.5625
vt 0.8750 0.6250
vt 0.6250 0.6250
vt 1.0000 0.8125
vt 0.0000 0.8125
vt 0.0000 0.6875
vt 1.0000 0.6875
vt -0.0000 0.6875
vt 1.0000 0.6875
vt 1.0000 0.8125
vt -0.0000 0.8125
vt 0.6250 0.5000
vt 0.8750 0.5000
vt 0.8750 0.5625
vt 0.6250 0.5625
vt 0.6250 0.5625
vt 0.8750 0.5625
vt 0.8750 0.6250
vt 0.6250 0.6250
vt 0.0000 0.8125
vt 0.0000 0.6875
vt 0.0000 0.6875
vt 1.0000 0.6875
vt 1.0000 0.8125
vt 0.0000 0.8125
vn 0.0000 0.0000 -1.0000
vn 0.0000 -0.0000 1.0000
vn 0.0000 1.0000 0.0000
vn 0.0000 -1.0000 0.0000
vn 1.0000 0.0000 0.0000
vn -1.0000 0.0000 0.0000
vn 0.8192 -0.5736 -0.0000
vn -0.8192 0.5736 0.0000
vn 0.5736 0.8192 0.0000
vn -0.5736 -0.8192 -0.0000
vn 0.0000 0.9336 0.3584
vn 0.0000 -0.9336 -0.3584
vn 0.0000 -0.3584 0.9336
vn 0.0000 0.3584 -0.9336
usemtl None
s 1
f 1/1/1 2/2/1 3/3/1 4/4/1
f 5/5/2 6/6/2 7/7/2 8/8/2
f 4/9/3 3/10/3 8/11/3 7/12/3
f 6/13/4 5/14/4 2/15/4 1/16/4
f 9/17/5 10/18/5 11/19/5 12/20/5
f 13/21/6 14/22/6 15/23/6 16/24/6
f 12/25/3 11/26/3 16/27/3 15/28/3
f 14/29/4 13/30/4 10/31/4 9/32/4
f 14/33/2 9/17/2 12/20/2 15/34/2
f 10/18/1 13/21/1 16/24/1 11/19/1
f 17/35/7 18/36/7 19/37/7 20/38/7
f 21/39/8 22/40/8 23/41/8 24/42/8
f 20/43/9 19/44/9 24/45/9 23/46/9
f 22/47/10 21/48/10 18/49/10 17/50/10
f 22/51/2 17/52/2 20/53/2 23/54/2
f 18/55/1 21/56/1 24/57/1 19/58/1
f 25/59/6 26/60/6 27/61/6 28/62/6
f 29/63/5 30/64/5 31/65/5 32/66/5
f 28/67/3 27/68/3 32/69/3 31/70/3
f 30/71/4 29/72/4 26/73/4 25/74/4
f 33/75/5 34/76/5 35/77/5 36/78/5
f 37/79/6 38/80/6 39/81/6 40/82/6
f 36/83/11 35/84/11 40/85/11 39/86/11
f 38/87/12 37/88/12 34/89/12 33/90/12
f 38/91/13 33/92/13 36/93/13 39/94/13
f 34/76/14 37/95/14 40/96/14 35/77/14
f 41/97/5 42/98/5 43/99/5 44/100/5
f 45/101/6 46/102/6 47/103/6 48/104/6
f 44/105/3 43/106/3 48/107/3 47/108/3
f 46/109/4 45/110/4 42/111/4 41/112/4
f 46/113/2 41/114/2 44/115/2 47/108/2
f 42/116/1 45/101/1 48/104/1 43/117/1
f 49/118/5 50/119/5 51/120/5 52/121/5
f 53/122/6 54/123/6 55/124/6 56/125/6
f 52/126/3 51/127/3 56/128/3 55/129/3
f 54/130/4 53/131/4 50/132/4 49/133/4
f 54/134/2 49/135/2 52/136/2 55/137/2
f 50/138/1 53/131/1 56/128/1 51/139/1
f 57/140/5 58/141/5 59/142/5 60/143/5
f 61/144/6 62/145/6 63/146/6 64/147/6
f 60/148/3 59/149/3 64/150/3 63/151/3
f 62/152/4 61/153/4 58/154/4 57/155/4
f 62/156/2 57/157/2 60/158/2 63/159/2
f 58/141/1 61/160/1 64/161/1 59/142/1
f 65/162/5 66/163/5 67/164/5 68/165/5
f 69/166/6 70/167/6 71/168/6 72/169/6
f 68/170/3 67/171/3 72/172/3 71/173/3
f 70/174/4 69/175/4 66/176/4 65/177/4
f 73/178/2 74/179/2 75/180/2 76/181/2
f 77/182/1 78/183/1 79/184/1 80/185/1
f 76/186/3 75/187/3 80/188/3 79/189/3
f 78/190/4 77/191/4 74/192/4 73/193/4
f 67/164/5 75/194/5 74/195/5 66/163/5
f 28/62/1 67/164/1 66/163/1 25/59/1
f 76/196/6 28/197/6 25/198/6 73/199/6
