# Blender v2.78 (sub 0) OBJ File: 'Enigma.blend'
# www.blender.org
mtllib enigma.mtl
o Enigma
v 0.578125 0.734375 0.421875
v 0.421875 0.734375 0.421875
v 0.421875 0.796875 0.421875
v 0.578125 0.796875 0.421875
v 0.421875 0.734375 0.578125
v 0.578125 0.734375 0.578125
v 0.578125 0.796875 0.578125
v 0.421875 0.796875 0.578125
v 0.609375 0.421875 0.390625
v 0.390625 0.421875 0.390625
v 0.390625 0.734375 0.390625
v 0.609375 0.734375 0.390625
v 0.390625 0.421875 0.609375
v 0.609375 0.421875 0.609375
v 0.609375 0.734375 0.609375
v 0.390625 0.734375 0.609375
v 0.562500 0.828125 0.437500
v 0.437500 0.828125 0.437500
v 0.437500 0.953125 0.437500
v 0.562500 0.953125 0.437500
v 0.437500 0.828125 0.562500
v 0.562500 0.828125 0.562500
v 0.562500 0.953125 0.562500
v 0.437500 0.953125 0.562500
v 0.515625 0.953125 0.484375
v 0.484375 0.953125 0.484375
v 0.484375 1.046875 0.484375
v 0.515625 1.046875 0.484375
v 0.484375 0.953125 0.515625
v 0.515625 0.953125 0.515625
v 0.515625 1.046875 0.515625
v 0.484375 1.046875 0.515625
v 0.593750 0.390625 0.406250
v 0.406250 0.390625 0.406250
v 0.406250 0.421875 0.406250
v 0.593750 0.421875 0.406250
v 0.406250 0.390625 0.593750
v 0.593750 0.390625 0.593750
v 0.593750 0.421875 0.593750
v 0.406250 0.421875 0.593750
v 0.546875 0.796875 0.453125
v 0.453125 0.796875 0.453125
v 0.453125 0.828125 0.453125
v 0.546875 0.828125 0.453125
v 0.453125 0.796875 0.546875
v 0.546875 0.796875 0.546875
v 0.546875 0.828125 0.546875
v 0.453125 0.828125 0.546875
vt 0.8750 0.9375
vt 0.5625 0.9375
vt 0.5625 0.7500
vt 0.8750 0.7500
vt 0.8750 0.9375
vt 0.5625 0.9375
vt 0.5625 0.7500
vt 0.8750 0.7500
vt 0.8750 0.5625
vt 0.8750 0.8750
vt 0.5625 0.8750
vt 0.5625 0.5625
vt 0.5625 0.7500
vt 0.8750 0.7500
vt 0.8750 0.9375
vt 0.5625 0.9375
vt 0.5625 0.7500
vt 0.8750 0.7500
vt 0.8750 0.9375
vt 0.5625 0.9375
vt 0.0000 1.0000
vt 0.4375 1.0000
vt 0.4375 0.3750
vt 0.0000 0.3750
vt 0.0000 1.0000
vt 0.4375 1.0000
vt 0.4375 0.3750
vt 0.0000 0.3750
vt 0.9375 0.9375
vt 0.5000 0.9375
vt 0.5000 0.5000
vt 0.9375 0.5000
vt 0.0625 0.6250
vt 0.1250 0.6250
vt 0.1250 0.7500
vt 0.0625 0.7500
vt 0.0000 1.0000
vt 0.4375 1.0000
vt 0.4375 0.3750
vt 0.0000 0.3750
vt 0.0000 1.0000
vt 0.4375 1.0000
vt 0.4375 0.3750
vt 0.0000 0.3750
vt 0.3125 0.3750
vt 0.1875 0.3750
vt 0.1875 0.1875
vt 0.3125 0.1875
vt 0.1875 0.1250
vt 0.4375 0.1250
vt 0.4375 0.3750
vt 0.1875 0.3750
vt 0.3750 0.1250
vt 0.3750 0.2500
vt 0.2500 0.2500
vt 0.2500 0.1250
vt 0.6875 0.7500
vt 0.7500 0.7500
vt 0.7500 0.9375
vt 0.6875 0.9375
vt 0.2500 0.1875
vt 0.4375 0.1875
vt 0.4375 0.3125
vt 0.2500 0.3125
vt 0.3125 0.3750
vt 0.1875 0.3750
vt 0.1875 0.2500
vt 0.3125 0.2500
vt 0.1250 0.3125
vt 0.1250 0.3125
vt 0.1250 0.2500
vt 0.1250 0.2500
vt 0.0625 0.1875
vt 0.1250 0.1875
vt 0.1250 0.3125
vt 0.0625 0.3125
vt 0.1250 0.3125
vt 0.1250 0.3125
vt 0.1250 0.2500
vt 0.1250 0.2500
vt 0.7500 0.2857
vt 0.7857 0.2857
vt 0.7857 0.3214
vt 0.7500 0.3214
vt 0.0625 0.2500
vt 0.1250 0.2500
vt 0.0625 0.3125
vt 0.0625 0.3125
vt 0.0625 0.2500
vt 0.0625 0.5000
vt 0.0625 0.7500
vt 0.0000 0.7500
vt 0.0000 0.5000
vt 0.0625 0.7500
vt 0.0625 0.5000
vt 0.0625 0.5000
vt 0.0625 0.7500
vt 0.0000 0.7143
vt 0.2143 0.7143
vt 0.2143 0.9286
vt 0.0000 0.9286
vt 0.0000 0.5625
vt 0.0625 0.5625
vt 0.0625 0.6875
vt 0.0000 0.6875
vt 0.0000 0.7500
vt 0.0000 0.5000
vt 0.0625 0.5000
vt 0.0625 0.7500
vt 0.0000 0.7500
vt 0.0000 0.5625
vt 0.0625 0.5625
vt 0.0625 0.7500
vt 0.8125 0.9375
vt 0.6250 0.9375
vt 0.6250 0.7500
vt 0.8125 0.7500
vt 0.6250 0.7500
vt 0.8125 0.7500
vt 0.8125 0.9375
vt 0.6250 0.9375
vt 0.6250 0.7500
vt 0.8125 0.7500
vt 0.8125 0.9375
vt 0.6250 0.9375
vt 0.8125 0.9375
vt 0.5625 0.9375
vt 0.5625 0.8125
vt 0.8125 0.8125
vn 0.0000 0.0000 -1.0000
vn 0.0000 0.0000 1.0000
vn 0.0000 1.0000 0.0000
vn 1.0000 0.0000 0.0000
vn -1.0000 0.0000 0.0000
vn 0.0000 -1.0000 0.0000
usemtl None
f 1/1/1 2/2/1 3/3/1 4/4/1
f 5/5/2 6/6/2 7/7/2 8/8/2
f 4/9/3 3/10/3 8/11/3 7/12/3
f 6/13/4 1/14/4 4/15/4 7/16/4
f 2/17/5 5/18/5 8/19/5 3/20/5
f 9/21/1 10/22/1 11/23/1 12/24/1
f 13/25/2 14/26/2 15/27/2 16/28/2
f 12/29/3 11/30/3 16/31/3 15/32/3
f 14/33/6 13/34/6 10/35/6 9/36/6
f 14/37/4 9/38/4 12/39/4 15/40/4
f 10/41/5 13/42/5 16/43/5 11/44/5
f 17/45/1 18/46/1 19/47/1 20/48/1
f 21/49/2 22/50/2 23/51/2 24/52/2
f 20/53/3 19/54/3 24/55/3 23/56/3
f 22/57/6 21/58/6 18/59/6 17/60/6
f 22/61/4 17/62/4 20/63/4 23/64/4
f 18/65/5 21/66/5 24/67/5 19/68/5
f 25/69/1 26/70/1 27/71/1 28/72/1
f 29/73/2 30/74/2 31/75/2 32/76/2
f 28/77/3 27/78/3 32/79/3 31/80/3
f 30/81/6 29/82/6 26/83/6 25/84/6
f 30/85/4 25/86/4 28/77/4 31/87/4
f 26/70/5 29/88/5 32/89/5 27/71/5
f 33/90/1 34/91/1 35/92/1 36/93/1
f 37/94/2 38/95/2 39/96/2 40/97/2
f 36/98/3 35/99/3 40/100/3 39/101/3
f 38/102/6 37/103/6 34/104/6 33/105/6
f 38/106/4 33/107/4 36/108/4 39/109/4
f 34/110/5 37/111/5 40/112/5 35/113/5
f 41/114/1 42/115/1 43/116/1 44/117/1
f 45/118/2 46/119/2 47/120/2 48/121/2
f 46/122/4 41/123/4 44/124/4 47/125/4
f 42/126/5 45/127/5 48/128/5 43/129/5
