# Blender v2.76 (sub 0) OBJ File: 'Enigma.blend'
# www.blender.org
mtllib enigma.mtl
o Enigma
v 0.578125 0.825000 0.421875
v 0.421875 0.825000 0.421875
v 0.421875 0.887500 0.421875
v 0.578125 0.887500 0.421875
v 0.421875 0.825000 0.578125
v 0.578125 0.825000 0.578125
v 0.578125 0.887500 0.578125
v 0.421875 0.887500 0.578125
v 0.609375 0.512500 0.390625
v 0.390625 0.512500 0.390625
v 0.390625 0.825000 0.390625
v 0.609375 0.825000 0.390625
v 0.390625 0.512500 0.609375
v 0.609375 0.512500 0.609375
v 0.609375 0.825000 0.609375
v 0.390625 0.825000 0.609375
v 0.562500 0.918750 0.437500
v 0.437500 0.918750 0.437500
v 0.437500 1.043750 0.437500
v 0.562500 1.043750 0.437500
v 0.437500 0.918750 0.562500
v 0.562500 0.918750 0.562500
v 0.562500 1.043750 0.562500
v 0.437500 1.043750 0.562500
v 0.515625 1.043750 0.484375
v 0.484375 1.043750 0.484375
v 0.484375 1.137500 0.484375
v 0.515625 1.137500 0.484375
v 0.484375 1.043750 0.515625
v 0.515625 1.043750 0.515625
v 0.515625 1.137500 0.515625
v 0.484375 1.137500 0.515625
v 0.593750 0.481250 0.406250
v 0.406250 0.481250 0.406250
v 0.406250 0.512500 0.406250
v 0.593750 0.512500 0.406250
v 0.406250 0.481250 0.593750
v 0.593750 0.481250 0.593750
v 0.593750 0.512500 0.593750
v 0.406250 0.512500 0.593750
v 0.546875 0.887500 0.453125
v 0.453125 0.887500 0.453125
v 0.453125 0.918750 0.453125
v 0.546875 0.918750 0.453125
v 0.453125 0.887500 0.546875
v 0.546875 0.887500 0.546875
v 0.546875 0.918750 0.546875
v 0.453125 0.918750 0.546875
vt 0.078125 0.515625
vt 0.156250 0.515625
vt 0.156250 0.546875
vt 0.078125 0.546875
vt 0.234375 0.515625
vt 0.312500 0.515625
vt 0.312500 0.546875
vt 0.234375 0.546875
vt 0.156250 0.625000
vt 0.078125 0.625000
vt 0.234375 0.625000
vt 0.000000 0.515625
vt 0.000000 0.546875
vt 0.109375 0.625000
vt 0.218750 0.625000
vt 0.218750 0.781250
vt 0.109375 0.781250
vt 0.328125 0.625000
vt 0.437500 0.625000
vt 0.437500 0.781250
vt 0.328125 0.781250
vt 0.218750 0.890625
vt 0.109375 0.890625
vt 0.328125 0.890625
vt 0.000000 0.625000
vt 0.000000 0.781250
vt 0.265625 0.375000
vt 0.328125 0.375000
vt 0.328125 0.437500
vt 0.265625 0.437500
vt 0.390625 0.375000
vt 0.453125 0.375000
vt 0.453125 0.437500
vt 0.390625 0.437500
vt 0.328125 0.500000
vt 0.265625 0.500000
vt 0.390625 0.500000
vt 0.203125 0.375000
vt 0.203125 0.437500
vt 0.140625 0.359375
vt 0.156250 0.359375
vt 0.156250 0.406250
vt 0.140625 0.406250
vt 0.171875 0.359375
vt 0.187500 0.359375
vt 0.187500 0.406250
vt 0.171875 0.406250
vt 0.156250 0.421875
vt 0.140625 0.421875
vt 0.171875 0.421875
vt 0.125000 0.359375
vt 0.125000 0.406250
vt 0.093750 0.890625
vt 0.187500 0.890625
vt 0.187500 0.906250
vt 0.093750 0.906250
vt 0.281250 0.890625
vt 0.375000 0.890625
vt 0.375000 0.906250
vt 0.281250 0.906250
vt 0.187500 1.000000
vt 0.093750 1.000000
vt 0.281250 1.000000
vt 0.000000 0.890625
vt 0.000000 0.906250
vt 0.046875 0.437500
vt 0.093750 0.437500
vt 0.093750 0.453125
vt 0.046875 0.453125
vt 0.140625 0.437500
vt 0.187500 0.437500
vt 0.187500 0.453125
vt 0.140625 0.453125
vt 0.093750 0.500000
vt 0.046875 0.500000
vt 0.140625 0.500000
vt 0.000000 0.437500
vt 0.000000 0.453125
vn 0.000000 0.000000 -1.000000
vn 0.000000 0.000000 1.000000
vn 0.000000 1.000000 0.000000
vn 0.000000 -1.000000 0.000000
vn 1.000000 0.000000 0.000000
vn -1.000000 0.000000 0.000000
usemtl None
s off
f 1/1/1 2/2/1 3/3/1 4/4/1
f 5/5/2 6/6/2 7/7/2 8/8/2
f 4/4/3 3/3/3 8/9/3 7/10/3
f 6/3/4 5/8/4 2/11/4 1/9/4
f 6/12/5 1/1/5 4/4/5 7/13/5
f 2/2/6 5/5/6 8/8/6 3/3/6
f 9/14/1 10/15/1 11/16/1 12/17/1
f 13/18/2 14/19/2 15/20/2 16/21/2
f 12/17/3 11/16/3 16/22/3 15/23/3
f 14/16/4 13/21/4 10/24/4 9/22/4
f 14/25/5 9/14/5 12/17/5 15/26/5
f 10/15/6 13/18/6 16/21/6 11/16/6
f 17/27/1 18/28/1 19/29/1 20/30/1
f 21/31/2 22/32/2 23/33/2 24/34/2
f 20/30/3 19/29/3 24/35/3 23/36/3
f 22/29/4 21/34/4 18/37/4 17/35/4
f 22/38/5 17/27/5 20/30/5 23/39/5
f 18/28/6 21/31/6 24/34/6 19/29/6
f 25/40/1 26/41/1 27/42/1 28/43/1
f 29/44/2 30/45/2 31/46/2 32/47/2
f 28/43/3 27/42/3 32/48/3 31/49/3
f 30/42/4 29/47/4 26/50/4 25/48/4
f 30/51/5 25/40/5 28/43/5 31/52/5
f 26/41/6 29/44/6 32/47/6 27/42/6
f 33/53/1 34/54/1 35/55/1 36/56/1
f 37/57/2 38/58/2 39/59/2 40/60/2
f 36/56/3 35/55/3 40/61/3 39/62/3
f 38/55/4 37/60/4 34/63/4 33/61/4
f 38/64/5 33/53/5 36/56/5 39/65/5
f 34/54/6 37/57/6 40/60/6 35/55/6
f 41/66/1 42/67/1 43/68/1 44/69/1
f 45/70/2 46/71/2 47/72/2 48/73/2
f 44/69/3 43/68/3 48/74/3 47/75/3
f 46/68/4 45/73/4 42/76/4 41/74/4
f 46/77/5 41/66/5 44/69/5 47/78/5
f 42/67/6 45/70/6 48/73/6 43/68/6
