# Blender v2.78 (sub 0) OBJ File: 'Leppa.blend'
# www.blender.org
mtllib leppa.mtl
o Leppa
v 0.271040 0.702846 0.437500
v 0.250312 0.716826 0.437500
v 0.446032 1.006990 0.437500
v 0.466756 0.993010 0.437500
v 0.250312 0.716826 0.562500
v 0.271040 0.702846 0.562500
v 0.466756 0.993010 0.562500
v 0.446032 1.006990 0.562500
v 0.487968 0.880934 0.475000
v 0.463712 0.874886 0.475000
v 0.433472 0.996174 0.475000
v 0.457728 1.002222 0.475000
v 0.463712 0.874886 0.525000
v 0.487968 0.880934 0.525000
v 0.457728 1.002222 0.525000
v 0.433472 0.996174 0.525000
v 0.536288 0.874886 0.475000
v 0.512032 0.880934 0.475000
v 0.542272 1.002222 0.475000
v 0.566528 0.996174 0.475000
v 0.512032 0.880934 0.525000
v 0.536288 0.874886 0.525000
v 0.566528 0.996174 0.525000
v 0.542272 1.002222 0.525000
v 0.625000 0.604342 0.375000
v 0.375000 0.604342 0.375000
v 0.375000 0.854342 0.375000
v 0.625000 0.854342 0.375000
v 0.375000 0.604342 0.625000
v 0.625000 0.604342 0.625000
v 0.625000 0.854342 0.625000
v 0.375000 0.854342 0.625000
v 0.537500 0.854178 0.462500
v 0.462500 0.854178 0.462500
v 0.462500 0.879178 0.462500
v 0.537500 0.879178 0.462500
v 0.462500 0.854178 0.537500
v 0.537500 0.854178 0.537500
v 0.537500 0.879178 0.537500
v 0.462500 0.879178 0.537500
v 0.749688 0.716826 0.437500
v 0.728960 0.702846 0.437500
v 0.533244 0.993010 0.437500
v 0.553968 1.006990 0.437500
v 0.728960 0.702846 0.562500
v 0.749688 0.716826 0.562500
v 0.553968 1.006990 0.562500
v 0.533244 0.993010 0.562500
vt 0.3125 0.0625
vt 0.3125 0.0625
vt 0.3125 0.3125
vt 0.3125 0.3125
vt 0.4375 0.1250
vt 0.4375 0.1250
vt 0.4375 0.3125
vt 0.4375 0.3125
vt 0.9375 0.9375
vt 1.0000 0.9375
vt 1.0000 1.0000
vt 0.9375 1.0000
vt 0.3125 0.1250
vt 0.3125 0.1250
vt 0.3125 0.2500
vt 0.3125 0.2500
vt 0.3125 0.0625
vt 0.3750 0.0625
vt 0.3750 0.3125
vt 0.3125 0.3125
vt 0.9375 1.0000
vt 0.6250 1.0000
vt 0.6250 0.1250
vt 0.9375 0.1250
vt 0.8125 0.6875
vt 0.8125 0.6875
vt 0.8125 0.8125
vt 0.8125 0.8125
vt 0.8750 0.6875
vt 0.8750 0.6875
vt 0.8750 0.8125
vt 0.8750 0.8125
vt 0.7500 0.8125
vt 0.7500 0.8125
vt 0.7500 0.8125
vt 0.7500 0.8125
vt 0.8125 0.8125
vt 0.8125 0.8125
vt 0.8125 0.8125
vt 0.8125 0.8125
vt 0.7500 0.6875
vt 0.8125 0.6875
vt 0.8125 0.6875
vt 0.8125 0.8125
vt 0.8125 0.8125
vt 0.8125 0.6875
vt 0.8750 0.6875
vt 0.8750 0.8125
vt 0.8125 0.8125
vt 0.8125 0.8125
vt 0.5312 0.9688
vt 0.5469 0.9688
vt 0.5469 1.0000
vt 0.5312 1.0000
vt 0.7500 0.6875
vt 0.7500 0.8125
vt 0.0000 0.3750
vt 0.6250 0.3750
vt 0.6250 1.0000
vt 0.0000 1.0000
vt 0.0000 0.3750
vt 0.6250 0.3750
vt 0.6250 1.0000
vt 0.0000 1.0000
vt 0.1562 0.8438
vt 0.3125 0.8438
vt 0.3125 1.0000
vt 0.1562 1.0000
vt 0.3750 0.3750
vt 0.5625 0.3750
vt 0.5625 0.5625
vt 0.3750 0.5625
vt 0.0000 0.3750
vt 0.6250 0.3750
vt 0.6250 1.0000
vt 0.0000 1.0000
vt 0.0000 0.3750
vt 0.6250 0.3750
vt 0.6250 1.0000
vt 0.0000 1.0000
vt 0.7500 0.6875
vt 0.8125 0.6875
vt 0.8125 0.7500
vt 0.7500 0.7500
vt 0.7500 0.6250
vt 0.8125 0.6250
vt 0.8125 0.6875
vt 0.7500 0.6875
vt 0.8125 0.8125
vt 0.7500 0.8125
vt 0.7500 0.6875
vt 0.7500 0.7500
vt 0.7500 0.6250
vt 0.8125 0.6250
vt 0.8125 0.6875
vt 0.7500 0.6875
vt 0.3750 0.0000
vt 0.3750 0.0000
vt 0.3750 0.2500
vt 0.3750 0.2500
vt 0.9844 0.7031
vt 1.0000 0.7031
vt 1.0000 0.9219
vt 0.9844 0.9219
vt 0.8906 0.9219
vt 0.9062 0.9219
vt 0.9062 1.0000
vt 0.8906 1.0000
vt 0.9062 0.9219
vt 0.9219 0.9219
vt 0.9219 1.0000
vt 0.9062 1.0000
vt 0.9375 1.0000
vt 0.6250 1.0000
vt 0.6250 0.1250
vt 0.9375 0.1250
vt 0.1250 0.0625
vt 0.1875 0.0625
vt 0.1875 0.2500
vt 0.1250 0.2500
vn 0.0000 0.0000 -1.0000
vn -0.0000 -0.0000 1.0000
vn 0.5592 0.8290 0.0000
vn -0.5592 -0.8291 0.0000
vn 0.8290 -0.5592 0.0000
vn -0.8290 0.5592 0.0000
vn -0.2419 0.9703 0.0000
vn 0.2419 -0.9703 0.0000
vn 0.9703 0.2419 0.0000
vn -0.9703 -0.2419 0.0000
vn 0.2419 0.9703 0.0000
vn -0.2419 -0.9703 0.0000
vn 0.9703 -0.2419 0.0000
vn -0.9703 0.2419 0.0000
vn 0.0000 1.0000 0.0000
vn 0.0000 -1.0000 -0.0000
vn 1.0000 0.0000 0.0000
vn -1.0000 0.0000 0.0000
vn -0.5592 0.8290 0.0000
vn 0.5592 -0.8291 0.0000
vn 0.8290 0.5592 0.0000
vn -0.8290 -0.5592 0.0000
usemtl None
f 1/1/1 2/2/1 3/3/1 4/4/1
f 5/5/2 6/6/2 7/7/2 8/8/2
f 4/9/3 3/10/3 8/11/3 7/12/3
f 6/13/4 5/14/4 2/15/4 1/16/4
f 6/17/5 1/18/5 4/19/5 7/20/5
f 2/21/6 5/22/6 8/23/6 3/24/6
f 9/25/1 10/26/1 11/27/1 12/28/1
f 13/29/2 14/30/2 15/31/2 16/32/2
f 12/33/7 11/34/7 16/35/7 15/36/7
f 14/37/8 13/38/8 10/39/8 9/40/8
f 14/41/9 9/25/9 12/28/9 15/36/9
f 10/26/10 13/29/10 16/32/10 11/27/10
f 17/42/1 18/43/1 19/44/1 20/45/1
f 21/46/2 22/47/2 23/48/2 24/49/2
f 20/45/11 19/44/11 24/49/11 23/50/11
f 22/51/12 21/52/12 18/53/12 17/54/12
f 22/55/13 17/42/13 20/45/13 23/56/13
f 18/43/14 21/46/14 24/49/14 19/44/14
f 25/57/1 26/58/1 27/59/1 28/60/1
f 29/61/2 30/62/2 31/63/2 32/64/2
f 28/65/15 27/66/15 32/67/15 31/68/15
f 30/69/16 29/70/16 26/71/16 25/72/16
f 30/73/17 25/74/17 28/75/17 31/76/17
f 26/77/18 29/78/18 32/79/18 27/80/18
f 33/81/1 34/82/1 35/83/1 36/84/1
f 37/85/2 38/86/2 39/87/2 40/88/2
f 36/84/15 35/83/15 40/89/15 39/90/15
f 38/91/17 33/81/17 36/84/17 39/92/17
f 34/93/18 37/94/18 40/95/18 35/96/18
f 41/97/1 42/98/1 43/99/1 44/100/1
f 45/101/2 46/102/2 47/103/2 48/104/2
f 44/105/19 43/106/19 48/107/19 47/108/19
f 46/109/20 45/110/20 42/111/20 41/112/20
f 46/113/21 41/114/21 44/115/21 47/116/21
f 42/117/22 45/118/22 48/119/22 43/120/22
