# Blender v2.78 (sub 0) OBJ File: 'Nanab.blend'
# www.blender.org
mtllib nanab.mtl
o Nanab
v 0.531250 0.875000 0.468750
v 0.468750 0.875000 0.468750
v 0.468750 0.937500 0.468750
v 0.531250 0.937500 0.468750
v 0.468750 0.875000 0.531250
v 0.531250 0.875000 0.531250
v 0.531250 0.937500 0.531250
v 0.468750 0.937500 0.531250
v 0.656250 0.496675 0.317658
v 0.343750 0.496675 0.317658
v 0.343750 0.740244 0.458283
v 0.656250 0.740244 0.458283
v 0.343750 0.418550 0.452975
v 0.656250 0.418550 0.452975
v 0.656250 0.662119 0.593600
v 0.343750 0.662119 0.593600
v 0.656250 0.651992 0.464974
v 0.343750 0.651992 0.464974
v 0.343750 0.869910 0.445909
v 0.656250 0.869910 0.445909
v 0.343750 0.662886 0.589498
v 0.656250 0.662886 0.589498
v 0.656250 0.880804 0.570433
v 0.343750 0.880804 0.570433
v 0.671875 0.937500 0.468750
v 0.328125 0.937500 0.468750
v 0.328125 1.000000 0.468750
v 0.671875 1.000000 0.468750
v 0.328125 0.937500 0.531250
v 0.671875 0.937500 0.531250
v 0.671875 1.000000 0.531250
v 0.328125 1.000000 0.531250
vt 0.9375 0.8125
vt 0.8750 0.8750
vt 0.8750 0.8125
vt 1.0000 0.8125
vt 0.9375 0.8750
vt 0.9375 0.8125
vt 0.0625 0.9062
vt 0.0312 0.9375
vt 0.0312 0.9062
vt 0.8750 0.8750
vt 0.8750 0.8125
vt 0.8750 0.8750
vt 0.9375 0.8750
vt 0.6250 0.4375
vt 0.0000 1.0000
vt 0.0000 0.4375
vt 0.6250 0.4375
vt 0.0000 1.0000
vt 0.0000 0.4375
vt 0.2344 0.6250
vt 0.0781 0.7031
vt 0.0781 0.6250
vt 0.6250 0.1250
vt 0.0000 0.1250
vt 0.0000 0.4844
vt 0.0000 0.6250
vt 0.6250 0.5000
vt 0.5625 0.6875
vt 0.5625 0.5000
vt 0.5000 0.1250
vt 1.0000 0.7500
vt 0.5000 0.7500
vt 0.5000 0.1250
vt 1.0000 0.7500
vt 0.5000 0.7500
vt 1.0000 0.8125
vt 0.8125 0.8750
vt 0.8125 0.8125
vt 0.3750 0.8125
vt 0.2188 0.8750
vt 0.2188 0.8125
vt 1.0000 1.0000
vt 0.5000 1.0000
vt 0.5000 1.0000
vt 1.0000 1.0000
vt 0.8750 0.8125
vt 0.9375 0.8750
vt 0.9375 0.8125
vt 1.0000 0.8125
vt 0.8125 0.8750
vt 0.8125 0.8125
vt 0.8750 0.8750
vt 0.8125 0.8750
vt 1.0000 0.8750
vt 0.8125 0.8750
vt 0.8125 0.8750
vt 0.8750 0.8125
vt 0.8750 0.8750
vt 1.0000 0.8750
vt 0.0625 0.9375
vt 0.9375 0.8750
vt 0.6250 1.0000
vt 0.6250 1.0000
vt 0.2344 0.7031
vt 0.0781 0.4844
vt 0.6250 0.6875
vt 1.0000 0.1250
vt 1.0000 0.1250
vt 1.0000 0.8750
vt 0.3750 0.8750
vt 1.0000 0.8750
vt 0.9375 0.8750
vt 1.0000 0.8750
vn 0.0000 0.0000 -1.0000
vn 0.0000 0.0000 1.0000
vn 0.0000 1.0000 0.0000
vn 0.0000 -1.0000 0.0000
vn 1.0000 0.0000 0.0000
vn -1.0000 -0.0000 0.0000
vn 0.0000 0.5000 -0.8660
vn 0.0000 -0.5000 0.8660
vn 0.0000 0.8660 0.5000
vn 0.0000 -0.8660 -0.5000
vn 0.0000 -0.0872 -0.9962
vn 0.0000 0.0872 0.9962
vn 0.0000 0.9962 -0.0872
vn 0.0000 -0.9962 0.0872
usemtl None
f 2/1/1 4/2/1 1/3/1
f 6/4/2 8/5/2 5/6/2
f 3/7/3 7/8/3 4/9/3
f 5/6/4 1/10/4 6/11/4
f 6/11/5 4/2/5 7/12/5
f 5/6/6 3/13/6 2/1/6
f 10/14/7 12/15/7 9/16/7
f 14/17/8 16/18/8 13/19/8
f 11/20/9 15/21/9 12/22/9
f 13/23/10 9/16/10 14/24/10
f 14/25/5 12/22/5 15/26/5
f 13/27/6 11/28/6 10/29/6
f 18/30/11 20/31/11 17/32/11
f 22/33/12 24/34/12 21/35/12
f 19/36/13 23/37/13 20/38/13
f 21/39/14 17/40/14 22/41/14
f 17/32/5 23/42/5 22/43/5
f 18/44/6 24/34/6 19/45/6
f 26/46/1 28/47/1 25/48/1
f 30/49/2 32/50/2 29/51/2
f 27/52/3 31/53/3 28/47/3
f 29/54/4 25/55/4 30/56/4
f 30/57/5 28/47/5 31/58/5
f 29/51/6 27/52/6 26/46/6
f 2/1/1 3/13/1 4/2/1
f 6/4/2 7/59/2 8/5/2
f 3/7/3 8/60/3 7/8/3
f 5/6/4 2/61/4 1/10/4
f 6/11/5 1/3/5 4/2/5
f 5/6/6 8/5/6 3/13/6
f 10/14/7 11/62/7 12/15/7
f 14/17/8 15/63/8 16/18/8
f 11/20/9 16/64/9 15/21/9
f 13/23/10 10/14/10 9/16/10
f 14/25/5 9/65/5 12/22/5
f 13/27/6 16/66/6 11/28/6
f 18/30/11 19/67/11 20/31/11
f 22/33/12 23/68/12 24/34/12
f 19/36/13 24/69/13 23/37/13
f 21/39/14 18/70/14 17/40/14
f 17/32/5 20/31/5 23/42/5
f 18/44/6 21/35/6 24/34/6
f 26/46/1 27/52/1 28/47/1
f 30/49/2 31/71/2 32/50/2
f 27/52/3 32/72/3 31/53/3
f 29/54/4 26/73/4 25/55/4
f 30/57/5 25/48/5 28/47/5
f 29/51/6 32/50/6 27/52/6
