# Blender v2.76 (sub 0) OBJ File: 'Nanab.blend'
# www.blender.org
mtllib nanab.mtl
o Nanab
v 0.531250 1.043750 0.468750
v 0.468750 1.043750 0.468750
v 0.468750 1.106250 0.468750
v 0.531250 1.106250 0.468750
v 0.468750 1.043750 0.531250
v 0.531250 1.043750 0.531250
v 0.531250 1.106250 0.531250
v 0.468750 1.106250 0.531250
v 0.656250 0.665425 0.317658
v 0.343750 0.665425 0.317658
v 0.343750 0.908994 0.458283
v 0.656250 0.908994 0.458283
v 0.343750 0.587300 0.452975
v 0.656250 0.587300 0.452975
v 0.656250 0.830869 0.593600
v 0.343750 0.830869 0.593600
v 0.656250 0.820742 0.464974
v 0.343750 0.820742 0.464974
v 0.343750 1.038660 0.445909
v 0.656250 1.038660 0.445909
v 0.343750 0.831636 0.589498
v 0.656250 0.831636 0.589498
v 0.656250 1.049554 0.570433
v 0.343750 1.049554 0.570433
v 0.671875 1.106250 0.468750
v 0.328125 1.106250 0.468750
v 0.328125 1.168750 0.468750
v 0.671875 1.168750 0.468750
v 0.328125 1.106250 0.531250
v 0.671875 1.106250 0.531250
v 0.671875 1.168750 0.531250
v 0.328125 1.168750 0.531250
vt 0.031250 0.875000
vt 0.062500 0.875000
vt 0.062500 0.906250
vt 0.031250 0.906250
vt 0.093750 0.875000
vt 0.125000 0.875000
vt 0.125000 0.906250
vt 0.093750 0.906250
vt 0.062500 0.937500
vt 0.031250 0.937500
vt 0.093750 0.937500
vt 0.000000 0.875000
vt 0.000000 0.906250
vt 0.078125 0.484375
vt 0.234375 0.484375
vt 0.234375 0.625000
vt 0.078125 0.625000
vt 0.312500 0.484375
vt 0.468750 0.484375
vt 0.468750 0.625000
vt 0.312500 0.625000
vt 0.234375 0.703125
vt 0.078125 0.703125
vt 0.390625 0.625000
vt 0.390625 0.703125
vt 0.000000 0.484375
vt 0.000000 0.625000
vt 0.062500 0.703125
vt 0.218750 0.703125
vt 0.218750 0.812500
vt 0.062500 0.812500
vt 0.281250 0.703125
vt 0.437500 0.703125
vt 0.437500 0.812500
vt 0.281250 0.812500
vt 0.218750 0.875000
vt 0.375000 0.812500
vt 0.375000 0.875000
vt 0.000000 0.703125
vt 0.000000 0.812500
vt 0.203125 0.937500
vt 0.203125 0.968750
vt 0.031250 0.968750
vt 0.234375 0.937500
vt 0.406250 0.937500
vt 0.406250 0.968750
vt 0.234375 0.968750
vt 0.203125 1.000000
vt 0.031250 1.000000
vt 0.375000 0.968750
vt 0.375000 1.000000
vt 0.000000 0.937500
vt 0.000000 0.968750
vn 0.000000 0.000000 -1.000000
vn 0.000000 0.000000 1.000000
vn 0.000000 1.000000 0.000000
vn 0.000000 -1.000000 0.000000
vn 1.000000 0.000000 0.000000
vn -1.000000 0.000000 0.000000
vn 0.000000 0.500000 -0.866000
vn 0.000000 -0.500000 0.866000
vn 0.000000 0.866000 0.500000
vn 0.000000 -0.866000 -0.500000
vn 0.000000 -0.087200 -0.996200
vn 0.000000 0.087200 0.996200
vn 0.000000 0.996200 -0.087200
vn 0.000000 -0.996200 0.087200
usemtl None
s off
f 1/1/1 2/2/1 3/3/1 4/4/1
f 5/5/2 6/6/2 7/7/2 8/8/2
f 4/4/3 3/3/3 8/9/3 7/10/3
f 6/3/4 5/8/4 2/11/4 1/9/4
f 6/12/5 1/1/5 4/4/5 7/13/5
f 2/2/6 5/5/6 8/8/6 3/3/6
f 9/14/7 10/15/7 11/16/7 12/17/7
f 13/18/8 14/19/8 15/20/8 16/21/8
f 12/17/9 11/16/9 16/22/9 15/23/9
f 14/16/10 13/24/10 10/25/10 9/22/10
f 14/26/5 9/14/5 12/17/5 15/27/5
f 10/15/6 13/18/6 16/21/6 11/16/6
f 17/28/11 18/29/11 19/30/11 20/31/11
f 21/32/12 22/33/12 23/34/12 24/35/12
f 20/31/13 19/30/13 24/36/13 23/2/13
f 22/30/14 21/37/14 18/38/14 17/36/14
f 22/39/5 17/28/5 20/31/5 23/40/5
f 18/29/6 21/32/6 24/35/6 19/30/6
f 25/10/1 26/41/1 27/42/1 28/43/1
f 29/44/2 30/45/2 31/46/2 32/47/2
f 28/43/3 27/42/3 32/48/3 31/49/3
f 30/42/4 29/50/4 26/51/4 25/48/4
f 30/52/5 25/10/5 28/43/5 31/53/5
f 26/41/6 29/44/6 32/47/6 27/42/6
