# Blender v2.78 (sub 0) OBJ File: 'Oran.blend'
# www.blender.org
mtllib oran.mtl
o Right_ridge
v 0.600000 0.937500 0.400000
v 0.400000 0.937500 0.400000
v 0.400000 0.962500 0.400000
v 0.600000 0.962500 0.400000
v 0.400000 0.937500 0.600000
v 0.600000 0.937500 0.600000
v 0.600000 0.962500 0.600000
v 0.400000 0.962500 0.600000
v 0.350000 0.725000 0.400000
v 0.350000 0.925000 0.400000
v 0.375000 0.925000 0.400000
v 0.375000 0.725000 0.400000
v 0.350000 0.925000 0.600000
v 0.350000 0.725000 0.600000
v 0.375000 0.725000 0.600000
v 0.375000 0.925000 0.600000
v 0.600000 0.725000 0.650000
v 0.400000 0.725000 0.650000
v 0.400000 0.725000 0.625000
v 0.600000 0.725000 0.625000
v 0.400000 0.925000 0.650000
v 0.600000 0.925000 0.650000
v 0.600000 0.925000 0.625000
v 0.400000 0.925000 0.625000
v 0.625000 0.700000 0.375000
v 0.375000 0.700000 0.375000
v 0.375000 0.950000 0.375000
v 0.625000 0.950000 0.375000
v 0.375000 0.700000 0.625000
v 0.625000 0.700000 0.625000
v 0.625000 0.950000 0.625000
v 0.375000 0.950000 0.625000
v 0.600000 0.675000 0.400000
v 0.400000 0.675000 0.400000
v 0.400000 0.700000 0.400000
v 0.600000 0.700000 0.400000
v 0.400000 0.675000 0.600000
v 0.600000 0.675000 0.600000
v 0.600000 0.700000 0.600000
v 0.400000 0.700000 0.600000
v 0.650000 0.925000 0.400000
v 0.650000 0.725000 0.400000
v 0.625000 0.725000 0.400000
v 0.625000 0.925000 0.400000
v 0.650000 0.725000 0.600000
v 0.650000 0.925000 0.600000
v 0.625000 0.925000 0.600000
v 0.625000 0.725000 0.600000
v 0.600000 0.925000 0.350000
v 0.400000 0.925000 0.350000
v 0.400000 0.925000 0.375000
v 0.600000 0.925000 0.375000
v 0.400000 0.725000 0.350000
v 0.600000 0.725000 0.350000
v 0.600000 0.725000 0.375000
v 0.400000 0.725000 0.375000
v 0.550000 0.950000 0.450000
v 0.450000 0.950000 0.450000
v 0.450000 1.000000 0.450000
v 0.550000 1.000000 0.450000
v 0.450000 0.950000 0.550000
v 0.550000 0.950000 0.550000
v 0.550000 1.000000 0.550000
v 0.450000 1.000000 0.550000
vt 0.2500 0.4062
vt 0.1250 0.4219
vt 0.1250 0.4062
vt 0.5000 0.4062
vt 0.3750 0.4219
vt 0.3750 0.4062
vt 0.5000 0.0000
vt 0.0000 0.5000
vt 0.0000 0.0000
vt 0.0000 0.4219
vt 0.0000 0.4062
vt 0.2500 0.4219
vt 0.2500 0.5469
vt 0.1250 0.5625
vt 0.1250 0.5469
vt 0.5000 0.5469
vt 0.3750 0.5625
vt 0.3750 0.5469
vt 1.0000 0.5000
vt 0.5000 1.0000
vt 0.5000 0.5000
vt 0.0000 0.5625
vt 0.0000 0.5469
vt 0.2500 0.5625
vt 0.2500 0.5469
vt 0.1250 0.5625
vt 0.1250 0.5469
vt 0.5000 0.5469
vt 0.3750 0.5625
vt 0.3750 0.5469
vt 0.5000 0.5000
vt 0.0000 1.0000
vt 0.0000 0.5000
vt 0.0000 0.5625
vt 0.0000 0.5469
vt 0.2500 0.5625
vt 0.5000 0.5000
vt 0.0000 1.0000
vt 0.0000 0.5000
vt 1.0000 0.0000
vt 0.5000 0.5000
vt 0.5000 0.0000
vt 0.5000 0.5000
vt 0.0000 1.0000
vt 0.0000 0.5000
vt 0.5000 0.5000
vt 0.0000 1.0000
vt 0.0000 0.5000
vt 0.5000 0.5000
vt 0.4688 0.6875
vt 0.3125 0.8438
vt 0.3125 0.6875
vt 0.2500 0.5469
vt 0.1250 0.5625
vt 0.1250 0.5469
vt 0.5000 0.5469
vt 0.3750 0.5625
vt 0.3750 0.5469
vt 1.0000 0.0000
vt 0.5000 0.5000
vt 0.5000 0.0000
vt 0.0000 0.5625
vt 0.0000 0.5469
vt 0.2500 0.5625
vt 0.2500 0.5469
vt 0.1250 0.5625
vt 0.1250 0.5469
vt 0.5000 0.5469
vt 0.3750 0.5625
vt 0.3750 0.5469
vt 0.2500 0.5625
vt 0.1250 0.6875
vt 0.5000 0.5000
vt 1.0000 1.0000
vt 0.5000 1.0000
vt 0.0000 0.5625
vt 0.0000 0.5469
vt 0.2500 0.5469
vt 0.1250 0.5625
vt 0.1250 0.5469
vt 0.5000 0.5469
vt 0.3750 0.5625
vt 0.3750 0.5469
vt 0.5000 0.5000
vt 0.0000 1.0000
vt 0.0000 0.5000
vt 0.0000 0.5625
vt 0.0000 0.5469
vt 0.2500 0.5625
vt 0.1875 0.3125
vt 0.1250 0.3750
vt 0.1250 0.3125
vt 0.2500 0.3125
vt 0.1875 0.3750
vt 0.1875 0.3125
vt 0.2500 0.3125
vt 0.1875 0.3750
vt 0.1875 0.3125
vt 0.2500 0.3125
vt 0.1875 0.3125
vt 0.1250 0.3750
vt 0.1250 0.3125
vt 0.5000 0.4219
vt 0.5000 0.5000
vt 0.5000 0.5625
vt 1.0000 1.0000
vt 0.5000 0.5625
vt 0.5000 1.0000
vt 0.5000 1.0000
vt 1.0000 0.5000
vt 0.5000 1.0000
vt 0.5000 1.0000
vt 0.5000 1.0000
vt 0.4688 0.8438
vt 0.5000 0.5625
vt 1.0000 0.5000
vt 0.5000 0.5625
vt 0.2500 0.6875
vt 1.0000 0.5000
vt 0.5000 0.5625
vt 0.5000 1.0000
vt 0.1875 0.3750
vt 0.2500 0.3750
vt 0.2500 0.3750
vt 0.2500 0.3750
vn 0.0000 0.0000 -1.0000
vn 0.0000 0.0000 1.0000
vn 0.0000 1.0000 0.0000
vn 1.0000 0.0000 0.0000
vn -1.0000 0.0000 0.0000
vn 0.0000 -1.0000 -0.0000
usemtl None
f 2/1/1 4/2/1 1/3/1
f 6/4/2 8/5/2 5/6/2
f 3/7/3 7/8/3 4/9/3
f 1/3/4 7/10/4 6/11/4
f 5/6/5 3/12/5 2/1/5
f 10/13/1 12/14/1 9/15/1
f 14/16/2 16/17/2 13/18/2
f 13/19/5 9/20/5 14/21/5
f 9/15/6 15/22/6 14/23/6
f 13/18/3 11/24/3 10/13/3
f 18/25/6 20/26/6 17/27/6
f 22/28/3 24/29/3 21/30/3
f 21/31/2 17/32/2 22/33/2
f 17/27/4 23/34/4 22/35/4
f 21/30/5 19/36/5 18/25/5
f 26/37/1 28/38/1 25/39/1
f 30/40/2 32/41/2 29/42/2
f 27/43/3 31/44/3 28/45/3
f 29/46/6 25/47/6 30/48/6
f 25/49/4 31/44/4 30/48/4
f 29/50/5 27/51/5 26/52/5
f 34/53/1 36/54/1 33/55/1
f 38/56/2 40/57/2 37/58/2
f 37/59/6 33/60/6 38/61/6
f 33/55/4 39/62/4 38/63/4
f 34/53/5 40/57/5 35/64/5
f 42/65/1 44/66/1 41/67/1
f 46/68/2 48/69/2 45/70/2
f 43/71/5 47/72/5 44/66/5
f 46/73/4 42/74/4 41/75/4
f 41/67/3 47/76/3 46/77/3
f 45/70/6 43/71/6 42/65/6
f 50/78/3 52/79/3 49/80/3
f 54/81/6 56/82/6 53/83/6
f 53/84/1 49/85/1 54/86/1
f 49/80/4 55/87/4 54/88/4
f 53/83/5 51/89/5 50/78/5
f 58/90/1 60/91/1 57/92/1
f 62/93/2 64/94/2 61/95/2
f 59/96/3 63/97/3 60/98/3
f 57/99/4 63/97/4 62/100/4
f 61/95/5 59/101/5 58/102/5
f 2/1/1 3/12/1 4/2/1
f 6/4/2 7/103/2 8/5/2
f 3/7/3 8/104/3 7/8/3
f 1/3/4 4/2/4 7/10/4
f 5/6/5 8/5/5 3/12/5
f 10/13/1 11/24/1 12/14/1
f 14/16/2 15/105/2 16/17/2
f 13/19/5 10/106/5 9/20/5
f 9/15/6 12/14/6 15/22/6
f 13/18/3 16/17/3 11/24/3
f 18/25/6 19/36/6 20/26/6
f 22/28/3 23/107/3 24/29/3
f 21/31/2 18/108/2 17/32/2
f 17/27/4 20/26/4 23/34/4
f 21/30/5 24/29/5 19/36/5
f 26/37/1 27/109/1 28/38/1
f 30/40/2 31/110/2 32/41/2
f 27/43/3 32/111/3 31/44/3
f 29/46/6 26/112/6 25/47/6
f 25/49/4 28/113/4 31/44/4
f 29/50/5 32/114/5 27/51/5
f 34/53/1 35/64/1 36/54/1
f 38/56/2 39/115/2 40/57/2
f 37/59/6 34/116/6 33/60/6
f 33/55/4 36/54/4 39/62/4
f 34/53/5 37/58/5 40/57/5
f 42/65/1 43/71/1 44/66/1
f 46/68/2 47/117/2 48/69/2
f 43/71/5 48/118/5 47/72/5
f 46/73/4 45/119/4 42/74/4
f 41/67/3 44/66/3 47/76/3
f 45/70/6 48/69/6 43/71/6
f 50/78/3 51/89/3 52/79/3
f 54/81/6 55/120/6 56/82/6
f 53/84/1 50/121/1 49/85/1
f 49/80/4 52/79/4 55/87/4
f 53/83/5 56/82/5 51/89/5
f 58/90/1 59/122/1 60/91/1
f 62/93/2 63/123/2 64/94/2
f 59/96/3 64/124/3 63/97/3
f 57/99/4 60/125/4 63/97/4
f 61/95/5 64/94/5 59/101/5
