# Blender v2.76 (sub 0) OBJ File: 'Oran.blend'
# www.blender.org
mtllib oran.mtl
o Right_ridge
v 0.600000 0.872500 0.400000
v 0.400000 0.872500 0.400000
v 0.400000 0.897500 0.400000
v 0.600000 0.897500 0.400000
v 0.400000 0.872500 0.600000
v 0.600000 0.872500 0.600000
v 0.600000 0.897500 0.600000
v 0.400000 0.897500 0.600000
v 0.350000 0.660000 0.400000
v 0.350000 0.860000 0.400000
v 0.375000 0.860000 0.400000
v 0.375000 0.660000 0.400000
v 0.350000 0.860000 0.600000
v 0.350000 0.660000 0.600000
v 0.375000 0.660000 0.600000
v 0.375000 0.860000 0.600000
v 0.600000 0.660000 0.650000
v 0.400000 0.660000 0.650000
v 0.400000 0.660000 0.625000
v 0.600000 0.660000 0.625000
v 0.400000 0.860000 0.650000
v 0.600000 0.860000 0.650000
v 0.600000 0.860000 0.625000
v 0.400000 0.860000 0.625000
v 0.625000 0.635000 0.375000
v 0.375000 0.635000 0.375000
v 0.375000 0.885000 0.375000
v 0.625000 0.885000 0.375000
v 0.375000 0.635000 0.625000
v 0.625000 0.635000 0.625000
v 0.625000 0.885000 0.625000
v 0.375000 0.885000 0.625000
v 0.600000 0.610000 0.400000
v 0.400000 0.610000 0.400000
v 0.400000 0.635000 0.400000
v 0.600000 0.635000 0.400000
v 0.400000 0.610000 0.600000
v 0.600000 0.610000 0.600000
v 0.600000 0.635000 0.600000
v 0.400000 0.635000 0.600000
v 0.650000 0.860000 0.400000
v 0.650000 0.660000 0.400000
v 0.625000 0.660000 0.400000
v 0.625000 0.860000 0.400000
v 0.650000 0.660000 0.600000
v 0.650000 0.860000 0.600000
v 0.625000 0.860000 0.600000
v 0.625000 0.660000 0.600000
v 0.600000 0.860000 0.350000
v 0.400000 0.860000 0.350000
v 0.400000 0.860000 0.375000
v 0.600000 0.860000 0.375000
v 0.400000 0.660000 0.350000
v 0.600000 0.660000 0.350000
v 0.600000 0.660000 0.375000
v 0.400000 0.660000 0.375000
v 0.550000 0.885000 0.450000
v 0.450000 0.885000 0.450000
v 0.450000 0.935000 0.450000
v 0.550000 0.935000 0.450000
v 0.450000 0.885000 0.550000
v 0.550000 0.885000 0.550000
v 0.550000 0.935000 0.550000
v 0.450000 0.935000 0.550000
vt 0.125000 0.406250
vt 0.250000 0.406250
vt 0.250000 0.421875
vt 0.125000 0.421875
vt 0.375000 0.406250
vt 0.500000 0.406250
vt 0.500000 0.421875
vt 0.375000 0.421875
vt 0.250000 0.546875
vt 0.125000 0.546875
vt 0.375000 0.546875
vt 0.000000 0.406250
vt 0.000000 0.421875
vt 0.250000 0.562500
vt 0.125000 0.562500
vt 0.500000 0.546875
vt 0.500000 0.562500
vt 0.375000 0.562500
vt 0.250000 0.687500
vt 0.125000 0.687500
vt 0.375000 0.687500
vt 0.000000 0.546875
vt 0.000000 0.562500
vt 0.156250 0.687500
vt 0.312500 0.687500
vt 0.312500 0.843750
vt 0.156250 0.843750
vt 0.468750 0.687500
vt 0.625000 0.687500
vt 0.625000 0.843750
vt 0.468750 0.843750
vt 0.312500 1.000000
vt 0.156250 1.000000
vt 0.468750 1.000000
vt 0.000000 0.687500
vt 0.000000 0.843750
vt 0.062500 0.312500
vt 0.125000 0.312500
vt 0.125000 0.343750
vt 0.062500 0.343750
vt 0.187500 0.312500
vt 0.250000 0.312500
vt 0.250000 0.343750
vt 0.187500 0.343750
vt 0.062500 0.406250
vt 0.187500 0.406250
vt 0.000000 0.312500
vt 0.000000 0.343750
vn 0.000000 0.000000 -1.000000
vn 0.000000 0.000000 1.000000
vn 0.000000 1.000000 0.000000
vn 0.000000 -1.000000 0.000000
vn 1.000000 0.000000 0.000000
vn -1.000000 0.000000 0.000000
usemtl None
s off
f 1/1/1 2/2/1 3/3/1 4/4/1
f 5/5/2 6/6/2 7/7/2 8/8/2
f 4/4/3 3/3/3 8/9/3 7/10/3
f 6/3/4 5/8/4 2/11/4 1/9/4
f 6/12/5 1/1/5 4/4/5 7/13/5
f 2/2/6 5/5/6 8/8/6 3/3/6
f 9/10/1 10/9/1 11/14/1 12/15/1
f 13/11/2 14/16/2 15/17/2 16/18/2
f 12/15/5 11/14/5 16/19/5 15/20/5
f 14/14/6 13/18/6 10/21/6 9/19/6
f 14/22/4 9/10/4 12/15/4 15/23/4
f 10/9/3 13/11/3 16/18/3 11/14/3
f 17/10/4 18/9/4 19/14/4 20/15/4
f 21/11/3 22/16/3 23/17/3 24/18/3
f 20/15/1 19/14/1 24/19/1 23/20/1
f 22/14/2 21/18/2 18/21/2 17/19/2
f 22/22/5 17/10/5 20/15/5 23/23/5
f 18/9/6 21/11/6 24/18/6 19/14/6
f 25/24/1 26/25/1 27/26/1 28/27/1
f 29/28/2 30/29/2 31/30/2 32/31/2
f 28/27/3 27/26/3 32/32/3 31/33/3
f 30/26/4 29/31/4 26/34/4 25/32/4
f 30/35/5 25/24/5 28/27/5 31/36/5
f 26/25/6 29/28/6 32/31/6 27/26/6
f 33/10/1 34/9/1 35/14/1 36/15/1
f 37/11/2 38/16/2 39/17/2 40/18/2
f 36/15/3 35/14/3 40/19/3 39/20/3
f 38/14/4 37/18/4 34/21/4 33/19/4
f 38/22/5 33/10/5 36/15/5 39/23/5
f 34/9/6 37/11/6 40/18/6 35/14/6
f 41/10/1 42/9/1 43/14/1 44/15/1
f 45/11/2 46/16/2 47/17/2 48/18/2
f 44/15/6 43/14/6 48/19/6 47/20/6
f 46/14/5 45/18/5 42/21/5 41/19/5
f 46/22/3 41/10/3 44/15/3 47/23/3
f 42/9/4 45/11/4 48/18/4 43/14/4
f 49/10/3 50/9/3 51/14/3 52/15/3
f 53/11/4 54/16/4 55/17/4 56/18/4
f 52/15/2 51/14/2 56/19/2 55/20/2
f 54/14/1 53/18/1 50/21/1 49/19/1
f 54/22/5 49/10/5 52/15/5 55/23/5
f 50/9/6 53/11/6 56/18/6 51/14/6
f 57/37/1 58/38/1 59/39/1 60/40/1
f 61/41/2 62/42/2 63/43/2 64/44/2
f 60/40/3 59/39/3 64/1/3 63/45/3
f 62/39/4 61/44/4 58/46/4 57/1/4
f 62/47/5 57/37/5 60/40/5 63/48/5
f 58/38/6 61/41/6 64/44/6 59/39/6
