# Blender v2.75 (sub 0) OBJ File: 'pc.blend'
# www.blender.org
mtllib pc.mtl
g pc_top
v 0.000000 0.000000 1.000000
v 0.000000 1.000000 1.000000
v 0.000000 0.000000 0.000000
v 0.000000 1.000000 0.000000
v 1.000000 0.000000 1.000000
v 0.275000 1.000000 1.000000
v 1.000000 0.000000 0.000000
v 0.275000 1.000000 0.000000
v 1.000000 0.200000 0.000000
v 1.000000 0.200000 1.000000
vt 0.000160 0.250000
vt 0.499840 0.250000
vt 0.499840 0.000160
vt 0.000160 0.316364
vt 0.398342 0.499840
vt 0.250000 0.899904
vt 0.250000 0.999840
vt 0.000160 0.999840
vt 0.433796 0.500160
vt 0.500160 0.500160
vt 0.500160 0.999840
vt 0.499840 0.499840
vt 0.999520 0.499840
vt 0.500480 0.500160
vt 0.570748 0.500160
vt 0.570748 0.999840
vt 0.250000 0.500160
vt 0.000160 0.899904
vt 0.000160 0.000160
vt 0.250320 0.898342
vt 0.250320 0.999840
vt 0.999520 0.250000
vt 0.500480 0.999840
vt 0.000160 0.500160
vn -1.000000 0.000000 0.000000
vn 0.000000 0.000000 -1.000000
vn 1.000000 0.000000 0.000000
vn 0.000000 0.000000 1.000000
vn 0.000000 -1.000000 0.000000
vn 0.000000 1.000000 0.000000
vn 0.741000 0.671500 0.000000
usemtl pc_top
s off
f 4/1/1 3/2/1 1/3/1
f 3/2/2 8/4/2 9/5/2
f 10/6/3 5/7/3 7/8/3
f 6/9/4 2/10/4 1/11/4
f 3/2/5 7/12/5 5/13/5
f 8/14/6 4/15/6 2/16/6
f 6/17/7 10/6/7 9/18/7
f 2/19/1 4/1/1 1/3/1
f 8/4/2 3/2/2 4/1/2
f 3/2/2 9/5/2 7/12/2
f 9/18/3 10/6/3 7/8/3
f 1/11/4 10/20/4 6/9/4
f 10/20/4 1/11/4 5/21/4
f 1/22/5 3/2/5 5/13/5
f 6/23/6 8/14/6 2/16/6
f 8/24/7 6/17/7 9/18/7
g pc_base
v 0.875000 0.617500 0.187500
v 0.874486 0.329247 0.812500
v 0.999486 0.545753 0.812500
v 0.874486 0.329247 0.187500
v 0.999486 0.545753 0.187500
v 0.875000 -0.000000 0.937500
v 0.875000 0.125000 0.937500
v 0.875000 -0.000000 0.062500
v 0.875000 0.125000 0.062500
v 1.000000 -0.000000 0.937500
v 1.000000 0.125000 0.937500
v 1.000000 -0.000000 0.062500
v 1.000000 0.125000 0.062500
v 0.000000 0.000000 1.000000
v 0.000000 1.000000 1.000000
v 0.000000 0.000000 0.000000
v 0.000000 1.000000 0.000000
v 0.875000 -0.000000 1.000000
v 0.875000 1.000000 1.000000
v 0.875000 -0.000000 -0.000000
v 0.875000 1.000000 -0.000000
v 0.878704 0.615487 0.187500
v 0.875000 0.617500 0.812500
vt 0.496094 0.000000
vt 0.570312 0.000000
vt 0.570312 0.328125
vt 0.431653 0.000000
vt 0.454663 0.000000
vt 0.454663 0.291666
vt 0.023438 0.000000
vt 0.023438 0.039062
vt 0.000000 0.039062
vt 0.000000 0.000000
vt 0.031250 0.000000
vt 0.031250 0.375000
vt 0.431653 0.291666
vt 0.408643 0.291666
vt 0.408642 0.000000
vt 0.023438 0.289062
vt 0.184082 0.000000
vt 0.184082 0.333333
vt 0.320312 0.335938
vt 0.320312 0.000000
vt 0.484375 0.000000
vt 0.718750 0.000000
vt 1.000000 0.000000
vt 1.000000 0.523438
vt 0.160156 0.000000
vt 0.160156 0.335938
vt 0.000000 0.335938
vt 0.023438 0.093750
vt 0.000000 0.070312
vt 0.027344 0.078125
vt 0.000000 0.078125
vt 0.027344 0.000000
vt 0.683594 0.000000
vt 0.683594 0.664062
vt 0.605469 0.664062
vt 0.496094 0.328125
vt 0.000000 0.375000
vt 0.000000 0.289062
vt 0.000000 0.333333
vt 0.484375 0.335938
vt 0.718750 0.523438
vt 0.605469 0.000000
vn 0.866000 -0.500000 0.000000
vn -1.000000 -0.000000 0.000000
vn 0.000000 0.000000 -1.000000
vn 1.000000 0.000000 0.000000
vn 0.000000 0.000000 1.000000
vn 0.000000 -1.000000 0.000000
vn 0.000000 1.000000 0.000000
vn 0.500000 0.866000 0.000000
vn 0.499300 0.866400 0.000200
vn 0.477500 0.878600 0.000000
usemtl pc_base
s off
f 13/25/8 12/26/8 14/27/8
f 19/28/9 18/29/9 16/30/9
f 23/31/10 22/32/10 18/33/10
f 21/34/11 20/35/11 22/36/11
f 21/31/12 17/32/12 16/33/12
f 18/37/13 22/38/13 20/39/13
f 23/34/14 19/31/14 17/40/14
f 27/34/9 26/41/9 24/42/9
f 31/43/10 30/44/10 26/45/10
f 29/46/11 28/47/11 30/48/11
f 25/49/12 24/50/12 28/51/12
f 26/49/13 30/44/13 28/43/13
f 31/34/14 27/49/14 25/50/14
f 32/52/10 15/53/10 14/31/10
f 13/54/12 33/55/12 12/56/12
f 13/57/15 15/58/15 32/59/15
f 15/60/8 13/25/8 14/27/8
f 17/37/9 19/28/9 16/30/9
f 19/34/10 23/31/10 18/33/10
f 23/61/11 21/34/11 22/36/11
f 20/34/12 21/31/12 16/33/12
f 16/28/13 18/37/13 20/39/13
f 21/62/14 23/34/14 17/40/14
f 25/63/9 27/34/9 24/42/9
f 27/64/10 31/43/10 26/45/10
f 31/65/11 29/46/11 30/48/11
f 29/34/12 25/49/12 28/51/12
f 24/50/13 26/49/13 28/43/13
f 29/51/14 31/34/14 25/50/14
f 11/52/10 32/52/10 14/31/10
f 32/59/16 33/66/16 13/57/16
f 33/66/17 32/59/17 11/59/17
