# Blender v2.75 (sub 0) OBJ File: 'pc.blend'
# www.blender.org
mtllib pc.mtl
g pc_top
v 0.000000 0.000000 1.000000
v 0.000000 1.000000 1.000000
v 0.000000 0.000000 0.000000
v 0.000000 1.000000 0.000000
v 1.000000 0.000000 1.000000
v 0.275000 1.000000 1.000000
v 1.000000 0.000000 0.000000
v 0.275000 1.000000 0.000000
v 1.000000 0.200000 0.000000
v 1.000000 0.200000 1.000000
vt 0.000160 0.250000
vt 0.499840 0.250000
vt 0.499840 0.000160
vt 0.000160 0.316364
vt 0.398342 0.499840
vt 0.250000 0.899904
vt 0.250000 0.999840
vt 0.000160 0.999840
vt 0.433796 0.500160
vt 0.500160 0.500160
vt 0.500160 0.999840
vt 0.499840 0.499840
vt 0.999520 0.499840
vt 0.500480 0.500160
vt 0.570748 0.500160
vt 0.570748 0.999840
vt 0.250000 0.500160
vt 0.000160 0.899904
vt 0.000160 0.000160
vt 0.250320 0.898342
vt 0.250320 0.999840
vt 0.999520 0.250000
vt 0.500480 0.999840
vt 0.000160 0.500160
vn -1.000000 0.000000 0.000000
vn 0.000000 0.000000 -1.000000
vn 1.000000 0.000000 0.000000
vn 0.000000 0.000000 1.000000
vn 0.000000 -1.000000 0.000000
vn 0.000000 1.000000 0.000000
vn 0.741000 0.671500 0.000000
usemtl pc_top
s off
f 4/1/1 3/2/1 1/3/1
f 3/2/2 8/4/2 9/5/2
f 10/6/3 5/7/3 7/8/3
f 6/9/4 2/10/4 1/11/4
f 3/2/5 7/12/5 5/13/5
f 8/14/6 4/15/6 2/16/6
f 6/17/7 10/6/7 9/18/7
f 2/19/1 4/1/1 1/3/1
f 8/4/2 3/2/2 4/1/2
f 3/2/2 9/5/2 7/12/2
f 9/18/3 10/6/3 7/8/3
f 1/11/4 10/20/4 6/9/4
f 10/20/4 1/11/4 5/21/4
f 1/22/5 3/2/5 5/13/5
f 6/23/6 8/14/6 2/16/6
f 8/24/7 6/17/7 9/18/7
