# Blender v2.78 (sub 0) OBJ File: 'Pecha.blend'
# www.blender.org
mtllib pecha.mtl
o Pecha
v 0.460004 0.799025 0.421875
v 0.385410 0.879017 0.421875
v 0.465402 0.953610 0.421875
v 0.539996 0.873619 0.421875
v 0.385410 0.879017 0.578125
v 0.460004 0.799025 0.578125
v 0.539996 0.873619 0.578125
v 0.465402 0.953610 0.578125
v 0.635902 0.901872 0.445312
v 0.625246 0.890444 0.445312
v 0.545254 0.965038 0.445313
v 0.555910 0.976465 0.445313
v 0.625246 0.890444 0.554688
v 0.635902 0.901872 0.554688
v 0.555910 0.976465 0.554688
v 0.545254 0.965038 0.554688
v 0.374754 0.890444 0.445312
v 0.364098 0.901872 0.445312
v 0.444090 0.976465 0.445313
v 0.454746 0.965038 0.445313
v 0.364098 0.901872 0.554688
v 0.374754 0.890444 0.554688
v 0.454746 0.965038 0.554688
v 0.444090 0.976465 0.554688
v 0.449614 0.798526 0.445312
v 0.438374 0.787672 0.445312
v 0.362396 0.866349 0.445312
v 0.373636 0.877203 0.445312
v 0.438374 0.787672 0.554688
v 0.449614 0.798526 0.554688
v 0.373636 0.877203 0.554688
v 0.362396 0.866349 0.554688
v 0.492800 0.915066 0.437500
v 0.354269 1.063622 0.437500
v 0.365696 1.074278 0.437500
v 0.504228 0.925722 0.437500
v 0.354269 1.063622 0.562500
v 0.492800 0.915066 0.562500
v 0.504228 0.925722 0.562500
v 0.365696 1.074278 0.562500
v 0.645731 1.063622 0.437500
v 0.507200 0.915066 0.437500
v 0.495773 0.925722 0.437500
v 0.634304 1.074278 0.437500
v 0.507200 0.915066 0.562500
v 0.645731 1.063622 0.562500
v 0.634304 1.074278 0.562500
v 0.495773 0.925722 0.562500
v 0.561625 0.787672 0.445312
v 0.550386 0.798526 0.445312
v 0.626364 0.877203 0.445312
v 0.637604 0.866349 0.445312
v 0.550386 0.798526 0.554688
v 0.561625 0.787672 0.554688
v 0.637604 0.866349 0.554688
v 0.626364 0.877203 0.554688
v 0.631297 0.885116 0.437500
v 0.546047 0.793697 0.437500
v 0.454291 0.878947 0.437500
v 0.539540 0.970366 0.437500
v 0.546047 0.793697 0.562500
v 0.631297 0.885116 0.562500
v 0.539540 0.970366 0.562500
v 0.454291 0.878947 0.562500
v 0.585696 0.836322 0.445312
v 0.500000 0.747934 0.445312
v 0.416268 0.836322 0.445312
v 0.500000 0.924710 0.445313
v 0.500000 0.747934 0.554688
v 0.584780 0.836322 0.554688
v 0.500000 0.924710 0.554688
v 0.415160 0.836322 0.554688
v 0.453874 0.793697 0.437500
v 0.368624 0.885116 0.437500
v 0.460460 0.970366 0.437500
v 0.545709 0.878947 0.437500
v 0.368624 0.885116 0.562500
v 0.453874 0.793697 0.562500
v 0.545709 0.878947 0.562500
v 0.460460 0.970366 0.562500
v 0.614590 0.879017 0.421875
v 0.539996 0.799025 0.421875
v 0.460004 0.873619 0.421875
v 0.534598 0.953610 0.421875
v 0.539996 0.799025 0.578125
v 0.614590 0.879017 0.578125
v 0.534598 0.953610 0.578125
v 0.460004 0.873619 0.578125
vt 0.3750 0.5000
vt 0.4375 0.5000
vt 0.4375 0.5625
vt 0.3750 0.5625
vt 0.5000 0.5000
vt 0.5625 0.5000
vt 0.5625 0.5625
vt 0.5000 0.5625
vt 0.1875 0.4375
vt 0.2500 0.4375
vt 0.2656 0.5156
vt 0.1562 0.5156
vt 0.2500 0.4375
vt 0.3750 0.6250
vt 0.3750 0.5156
vt 0.2656 0.5156
vt 0.0000 0.5000
vt 0.1875 0.5000
vt 0.0000 0.6250
vt 0.2500 0.5000
vt 0.4375 0.4375
vt 0.4375 0.5625
vt 0.5625 0.5000
vt 0.6250 0.5000
vt 0.6250 0.8750
vt 0.5625 0.8750
vt 0.5000 0.5625
vt 0.5625 0.5625
vt 0.5625 0.9375
vt 0.5000 0.9375
vt 0.6094 0.8906
vt 0.6250 0.8906
vt 0.6250 1.0000
vt 0.6094 1.0000
vt 0.6250 0.8906
vt 0.6406 0.8906
vt 0.6406 1.0000
vt 0.6250 1.0000
vt 0.4375 0.5000
vt 0.8125 0.5000
vt 0.8125 0.8750
vt 0.4375 0.8750
vt 0.6250 0.7812
vt 0.7344 0.7812
vt 0.7344 0.8906
vt 0.5625 0.8125
vt 0.6250 0.8125
vt 0.6250 0.9375
vt 0.5625 0.9375
vt 0.8125 0.5000
vt 0.8750 0.5000
vt 0.8750 0.8750
vt 0.8125 0.8750
vt 0.6094 0.8906
vt 0.6250 0.8906
vt 0.6250 1.0000
vt 0.6094 1.0000
vt 0.6250 0.8906
vt 0.6406 0.8906
vt 0.6406 1.0000
vt 0.6250 1.0000
vt 0.5000 0.7812
vt 0.6094 0.7812
vt 0.5000 0.8906
vt 0.4375 0.5000
vt 0.4375 0.8750
vt 0.5625 0.5000
vt 0.6250 0.5000
vt 0.6250 0.8750
vt 0.5625 0.8750
vt 0.8125 0.8125
vt 0.8750 0.8125
vt 0.8750 0.9375
vt 0.8125 0.9375
vt 0.6094 0.8906
vt 0.6250 0.8906
vt 0.6250 1.0000
vt 0.6094 1.0000
vt 0.6250 0.8906
vt 0.6406 0.8906
vt 0.6406 1.0000
vt 0.6250 1.0000
vt 0.5000 0.7812
vt 0.6094 0.7812
vt 0.5000 0.8906
vt 1.0000 0.5000
vt 1.0000 0.8750
vt 0.1250 0.1250
vt 0.0625 0.0625
vt 0.0625 0.1250
vt 0.1250 0.1250
vt 0.1875 0.0625
vt 0.1875 0.0625
vt 0.1875 0.1250
vt 0.1875 0.1250
vt 0.1875 0.0000
vt 1.0000 0.0000
vt 1.0000 0.4375
vt 0.1875 0.4375
vt 0.0625 0.1250
vt 0.1250 0.1250
vt 0.1875 0.1250
vt 0.0625 0.1250
vt 0.5625 0.5000
vt 0.6875 0.5000
vt 0.6875 0.5625
vt 0.5625 0.5625
vt 0.1875 0.1250
vt 0.0625 0.0625
vt 0.0625 0.1250
vt 0.1875 0.1250
vt 0.1875 0.0625
vt 0.1250 0.0625
vt 0.1250 0.1250
vt 0.1875 0.1250
vt 0.1875 0.0000
vt 1.0000 0.0000
vt 1.0000 0.4375
vt 0.1875 0.4375
vt 0.0625 0.1250
vt 0.1875 0.1250
vt 0.1250 0.1250
vt 0.0625 0.1250
vt 0.8750 0.5000
vt 1.0000 0.5000
vt 1.0000 0.5625
vt 0.8750 0.5625
vt 0.4375 0.8125
vt 0.5000 0.8125
vt 0.5000 0.9375
vt 0.4375 0.9375
vt 0.5625 0.5000
vt 0.6250 0.5000
vt 0.6250 0.8750
vt 0.5625 0.8750
vt 0.6094 0.8906
vt 0.6250 0.8906
vt 0.6250 1.0000
vt 0.6094 1.0000
vt 0.5625 0.8750
vt 0.6250 0.8750
vt 0.6250 1.0000
vt 0.5625 1.0000
vt 1.0000 0.5000
vt 1.0000 0.8750
vt 0.6250 0.7812
vt 0.7344 0.7812
vt 0.7344 0.8906
vt 0.3750 0.8125
vt 0.5000 0.8125
vt 0.5000 0.9375
vt 0.3750 0.9375
vt 0.3750 0.7500
vt 0.5000 0.7500
vt 0.5000 0.8750
vt 0.3750 0.8750
vt 0.1250 0.8750
vt 0.2500 0.8750
vt 0.2500 1.0000
vt 0.1250 1.0000
vt 0.2500 0.8750
vt 0.3750 0.8750
vt 0.3750 1.0000
vt 0.2500 1.0000
vt 0.4375 0.8125
vt 0.5625 0.8125
vt 0.5625 0.9375
vt 0.4375 0.9375
vt 0.4375 0.8125
vt 0.5625 0.8125
vt 0.5625 0.9375
vt 0.4375 0.9375
vt 0.0625 0.6250
vt 0.1250 0.6250
vt 0.1250 0.7500
vt 0.0625 0.7500
vt 0.2500 0.6250
vt 0.3750 0.6250
vt 0.3750 0.7500
vt 0.2500 0.7500
vt 0.1094 0.6406
vt 0.2344 0.6406
vt 0.2344 0.7500
vt 0.1094 0.7500
vt 0.1250 0.7500
vt 0.2500 0.7500
vt 0.2500 0.8125
vt 0.1250 0.8125
vt 0.0000 0.5156
vt 0.1250 0.6875
vt 0.0000 0.6406
vt 0.3750 0.8750
vt 0.5000 0.8750
vt 0.5000 1.0000
vt 0.3750 1.0000
vt 0.3750 0.7500
vt 0.5000 0.7500
vt 0.5000 0.8750
vt 0.3750 0.8750
vt 0.1250 0.8750
vt 0.2500 0.8750
vt 0.2500 1.0000
vt 0.1250 1.0000
vt 0.3750 0.8125
vt 0.5000 0.8125
vt 0.5000 0.9375
vt 0.3750 0.9375
vt 0.5000 0.8125
vt 0.5000 0.9375
vt 0.3750 0.9375
vt 0.3750 0.8125
vt 0.5000 0.9375
vt 0.3750 0.9375
vt 0.3750 0.5000
vt 0.4375 0.5000
vt 0.4375 0.5625
vt 0.3750 0.5625
vt 0.5000 0.5000
vt 0.5625 0.5000
vt 0.5625 0.5625
vt 0.5000 0.5625
vt 0.4375 0.9375
vt 0.5000 0.7500
vt 0.5000 0.8750
vt 0.3750 0.8750
vt 0.2500 0.4375
vt 0.3750 0.6250
vt 0.3750 0.5156
vt 0.2656 0.5156
vt 0.3750 0.8125
vt 0.5625 0.8125
vt 0.5625 0.9375
vt 0.3750 0.9375
vt 0.2500 0.5000
vt 0.4375 0.5000
vt 0.4375 0.6250
vt 0.2500 0.4375
vn 0.0000 0.0000 -1.0000
vn 0.0000 0.0000 1.0000
vn 0.7314 0.6820 0.0000
vn -0.7314 -0.6820 -0.0000
vn 0.6820 -0.7314 0.0000
vn -0.6820 0.7314 0.0000
vn -0.7314 0.6820 0.0000
vn 0.7313 -0.6820 -0.0000
vn 0.6820 0.7314 0.0000
vn -0.6820 -0.7314 0.0000
vn -0.7313 -0.6820 -0.0000
vn -0.6947 0.7193 0.0000
vn 0.6947 -0.7193 0.0000
vn 0.7193 0.6947 0.0000
vn -0.7193 -0.6947 -0.0000
vn 0.7314 -0.6820 -0.0000
vn 0.6947 0.7193 0.0000
vn -0.6947 -0.7193 0.0000
vn 0.7193 -0.6947 0.0000
vn -0.7193 0.6947 0.0000
vn 0.6807 0.7326 0.0000
vn -0.6807 -0.7326 -0.0000
vn -0.7237 0.6901 -0.0037
vn 0.7198 -0.6942 0.0030
vn 0.7198 0.6942 0.0030
vn -0.7237 -0.6901 -0.0037
vn 0.6803 -0.7329 -0.0000
vn -0.6803 0.7329 0.0000
usemtl None
f 1/1/1 2/2/1 3/3/1 4/4/1
f 5/5/2 6/6/2 7/7/2 8/8/2
f 4/9/3 3/10/3 8/11/3 7/12/3
f 6/13/4 5/14/4 2/15/4 1/16/4
f 6/17/5 1/18/5 4/9/5 7/19/5
f 2/20/6 5/21/6 8/22/6 3/10/6
f 9/23/1 10/24/1 11/25/1 12/26/1
f 13/27/2 14/28/2 15/29/2 16/30/2
f 12/31/7 11/32/7 16/33/7 15/34/7
f 14/35/8 13/36/8 10/37/8 9/38/8
f 14/39/9 9/40/9 12/41/9 15/42/9
f 10/43/10 13/44/10 16/45/10 11/32/10
f 17/46/1 18/47/1 19/48/1 20/49/1
f 21/50/2 22/51/2 23/52/2 24/53/2
f 20/54/3 19/55/3 24/56/3 23/57/3
f 22/58/11 21/59/11 18/60/11 17/61/11
f 22/62/5 17/63/5 20/54/5 23/64/5
f 18/65/6 21/50/6 24/53/6 19/66/6
f 25/67/1 26/68/1 27/69/1 28/70/1
f 29/71/2 30/72/2 31/73/2 32/74/2
f 28/75/12 27/76/12 32/77/12 31/78/12
f 30/79/13 29/80/13 26/81/13 25/82/13
f 30/83/14 25/84/14 28/75/14 31/85/14
f 26/68/15 29/86/15 32/87/15 27/69/15
f 33/88/1 34/89/1 35/90/1 36/91/1
f 37/92/2 38/93/2 39/94/2 40/95/2
f 36/96/3 35/97/3 40/98/3 39/99/3
f 38/100/4 37/101/4 34/102/4 33/103/4
f 38/104/5 33/105/5 36/106/5 39/107/5
f 34/89/6 37/92/6 40/95/6 35/90/6
f 41/108/1 42/109/1 43/110/1 44/111/1
f 45/112/2 46/113/2 47/114/2 48/115/2
f 44/116/7 43/117/7 48/118/7 47/119/7
f 46/120/16 45/121/16 42/122/16 41/123/16
f 46/120/9 41/108/9 44/111/9 47/114/9
f 42/124/10 45/125/10 48/126/10 43/127/10
f 49/128/1 50/129/1 51/130/1 52/131/1
f 53/132/2 54/133/2 55/134/2 56/135/2
f 52/136/17 51/137/17 56/138/17 55/139/17
f 54/140/18 53/141/18 50/142/18 49/143/18
f 54/133/19 49/144/19 52/145/19 55/134/19
f 50/146/20 53/147/20 56/148/20 51/137/20
f 57/149/1 58/150/1 59/151/1 60/152/1
f 61/153/2 62/154/2 63/155/2 64/156/2
f 60/157/7 59/158/7 64/159/7 63/160/7
f 62/161/16 61/162/16 58/163/16 57/164/16
f 62/165/21 57/166/21 60/167/21 63/168/21
f 58/169/22 61/170/22 64/171/22 59/172/22
f 65/173/1 66/174/1 67/175/1 68/176/1
f 69/177/2 70/178/2 71/179/2 72/180/2
f 68/181/23 67/182/23 72/183/23 71/184/23
f 70/185/24 69/186/24 66/187/24 65/188/24
f 70/189/25 65/190/25 68/181/25 71/191/25
f 66/174/26 69/177/26 72/180/26 67/175/26
f 73/192/1 74/193/1 75/194/1 76/195/1
f 77/196/2 78/197/2 79/198/2 80/199/2
f 76/200/3 75/201/3 80/202/3 79/203/3
f 78/204/4 77/205/4 74/206/4 73/207/4
f 78/204/27 73/208/27 76/209/27 79/210/27
f 74/211/28 77/205/28 80/212/28 75/213/28
f 81/214/1 82/215/1 83/216/1 84/217/1
f 85/218/2 86/219/2 87/220/2 88/221/2
f 84/222/7 83/223/7 88/224/7 87/225/7
f 86/226/16 85/227/16 82/228/16 81/229/16
f 86/230/9 81/231/9 84/232/9 87/233/9
f 82/234/10 85/235/10 88/236/10 83/237/10
