# Blender v2.76 (sub 0) OBJ File: ''
# www.blender.org
mtllib sitrus.mtl
o sitrus
v 0.556250 0.913750 0.443750
v 0.443750 0.913750 0.443750
v 0.443750 0.932500 0.443750
v 0.556250 0.932500 0.443750
v 0.443750 0.913750 0.556250
v 0.556250 0.913750 0.556250
v 0.556250 0.932500 0.556250
v 0.443750 0.932500 0.556250
v 0.612500 0.651250 0.387500
v 0.387500 0.651250 0.387500
v 0.387500 0.801250 0.387500
v 0.612500 0.801250 0.387500
v 0.387500 0.651250 0.612500
v 0.612500 0.651250 0.612500
v 0.612500 0.801250 0.612500
v 0.387500 0.801250 0.612500
v 0.546875 0.932500 0.453125
v 0.453125 0.932500 0.453125
v 0.453125 0.988750 0.453125
v 0.546875 0.988750 0.453125
v 0.453125 0.932500 0.546875
v 0.546875 0.932500 0.546875
v 0.546875 0.988750 0.546875
v 0.453125 0.988750 0.546875
v 0.593750 0.801250 0.406250
v 0.406250 0.801250 0.406250
v 0.406250 0.913750 0.406250
v 0.593750 0.913750 0.406250
v 0.406250 0.801250 0.593750
v 0.593750 0.801250 0.593750
v 0.593750 0.913750 0.593750
v 0.406250 0.913750 0.593750
v 0.606066 0.613750 0.500000
v 0.500000 0.613750 0.393934
v 0.500000 0.651250 0.393934
v 0.606066 0.651250 0.500000
v 0.393934 0.613750 0.500000
v 0.500000 0.613750 0.606066
v 0.500000 0.651250 0.606066
v 0.393934 0.651250 0.500000
vt 0.093750 0.328125
vt 0.187500 0.328125
vt 0.187500 0.343750
vt 0.093750 0.343750
vt 0.281250 0.328125
vt 0.375000 0.328125
vt 0.375000 0.343750
vt 0.281250 0.343750
vt 0.187500 0.437500
vt 0.093750 0.437500
vt 0.000000 0.328125
vt 0.000000 0.343750
vt 0.187500 0.687500
vt 0.375000 0.687500
vt 0.375000 0.812500
vt 0.187500 0.812500
vt 0.562500 0.687500
vt 0.750000 0.687500
vt 0.750000 0.812500
vt 0.562500 0.812500
vt 0.375000 1.000000
vt 0.187500 1.000000
vt 0.562500 1.000000
vt 0.000000 0.687500
vt 0.000000 0.812500
vt 0.078125 0.187500
vt 0.156250 0.187500
vt 0.156250 0.234375
vt 0.078125 0.234375
vt 0.234375 0.187500
vt 0.312500 0.187500
vt 0.312500 0.234375
vt 0.234375 0.234375
vt 0.156250 0.312500
vt 0.078125 0.312500
vt 0.000000 0.187500
vt 0.000000 0.234375
vt 0.156250 0.437500
vt 0.312500 0.437500
vt 0.312500 0.531250
vt 0.156250 0.531250
vt 0.468750 0.437500
vt 0.625000 0.437500
vt 0.625000 0.531250
vt 0.468750 0.531250
vt 0.312500 0.687500
vt 0.156250 0.687500
vt 0.000000 0.437500
vt 0.000000 0.531250
vt 0.125000 0.000000
vt 0.250000 0.000000
vt 0.250000 0.031250
vt 0.125000 0.031250
vt 0.375000 0.000000
vt 0.500000 0.000000
vt 0.500000 0.031250
vt 0.375000 0.031250
vt 0.375000 0.156250
vt 0.250000 0.156250
vt 0.000000 0.000000
vt 0.000000 0.031250
vn 0.000000 0.000000 -1.000000
vn 0.000000 0.000000 1.000000
vn 0.000000 1.000000 0.000000
vn 1.000000 0.000000 0.000000
vn -1.000000 0.000000 0.000000
vn 0.000000 -1.000000 0.000000
vn 0.707100 0.000000 -0.707100
vn -0.707100 0.000000 0.707100
vn 0.707100 0.000000 0.707100
vn -0.707100 0.000000 -0.707100
usemtl None
s off
f 1/1/1 2/2/1 3/3/1 4/4/1
f 5/5/2 6/6/2 7/7/2 8/8/2
f 4/4/3 3/3/3 8/9/3 7/10/3
f 6/11/4 1/1/4 4/4/4 7/12/4
f 2/2/5 5/5/5 8/8/5 3/3/5
f 9/13/1 10/14/1 11/15/1 12/16/1
f 13/17/2 14/18/2 15/19/2 16/20/2
f 12/16/3 11/15/3 16/21/3 15/22/3
f 14/15/6 13/20/6 10/23/6 9/21/6
f 14/24/4 9/13/4 12/16/4 15/25/4
f 10/14/5 13/17/5 16/20/5 11/15/5
f 17/26/1 18/27/1 19/28/1 20/29/1
f 21/30/2 22/31/2 23/32/2 24/33/2
f 20/29/3 19/28/3 24/34/3 23/35/3
f 22/36/4 17/26/4 20/29/4 23/37/4
f 18/27/5 21/30/5 24/33/5 19/28/5
f 25/38/1 26/39/1 27/40/1 28/41/1
f 29/42/2 30/43/2 31/44/2 32/45/2
f 28/41/3 27/40/3 32/46/3 31/47/3
f 30/48/4 25/38/4 28/41/4 31/49/4
f 26/39/5 29/42/5 32/45/5 27/40/5
f 33/50/7 34/51/7 35/52/7 36/53/7
f 37/54/8 38/55/8 39/56/8 40/57/8
f 38/52/6 37/57/6 34/58/6 33/59/6
f 38/60/9 33/50/9 36/53/9 39/61/9
f 34/51/10 37/54/10 40/57/10 35/52/10
