# Blender v2.78 (sub 0) OBJ File: 'Sitrus.blend'
# www.blender.org
mtllib sitrus.mtl
o sitrus
v 0.556250 0.953125 0.443750
v 0.443750 0.953125 0.443750
v 0.443750 0.971875 0.443750
v 0.556250 0.971875 0.443750
v 0.443750 0.953125 0.556250
v 0.556250 0.953125 0.556250
v 0.556250 0.971875 0.556250
v 0.443750 0.971875 0.556250
v 0.612500 0.690625 0.387500
v 0.387500 0.690625 0.387500
v 0.387500 0.840625 0.387500
v 0.612500 0.840625 0.387500
v 0.387500 0.690625 0.612500
v 0.612500 0.690625 0.612500
v 0.612500 0.840625 0.612500
v 0.387500 0.840625 0.612500
v 0.546875 0.971875 0.453125
v 0.453125 0.971875 0.453125
v 0.453125 1.028125 0.453125
v 0.546875 1.028125 0.453125
v 0.453125 0.971875 0.546875
v 0.546875 0.971875 0.546875
v 0.546875 1.028125 0.546875
v 0.453125 1.028125 0.546875
v 0.593750 0.840625 0.406250
v 0.406250 0.840625 0.406250
v 0.406250 0.953125 0.406250
v 0.593750 0.953125 0.406250
v 0.406250 0.840625 0.593750
v 0.593750 0.840625 0.593750
v 0.593750 0.953125 0.593750
v 0.406250 0.953125 0.593750
v 0.606066 0.653125 0.500000
v 0.500000 0.653125 0.393934
v 0.500000 0.690625 0.393934
v 0.606066 0.690625 0.500000
v 0.393934 0.653125 0.500000
v 0.500000 0.653125 0.606066
v 0.500000 0.690625 0.606066
v 0.393934 0.690625 0.500000
vt 0.6875 0.0625
vt 0.6250 0.0625
vt 0.6250 0.0625
vt 0.8750 0.0625
vt 0.8125 0.0625
vt 0.8125 0.0625
vt 0.6875 0.0625
vt 0.6250 0.0625
vt 0.5000 0.0625
vt 0.5000 0.0625
vt 0.7500 0.2500
vt 0.1875 0.6250
vt 0.1875 0.2500
vt 0.7500 0.2500
vt 0.1875 0.6250
vt 0.1875 0.2500
vt 0.8750 0.1250
vt 0.3125 0.6250
vt 0.3125 0.1250
vt 0.7500 0.3125
vt 0.1875 0.8125
vt 0.1875 0.3125
vt 1.0000 0.1250
vt 0.4375 0.5000
vt 0.4375 0.1250
vt 0.4375 0.1250
vt 1.0000 0.5000
vt 0.4375 0.5000
vt -0.0000 0.1875
vt 0.3125 0.0000
vt 0.3125 0.1875
vt -0.0000 0.1875
vt 0.3125 0.0000
vt 0.3125 0.1875
vt 0.0625 0.0000
vt 0.0000 0.0625
vt 0.0000 0.0000
vt -0.0000 0.1875
vt 0.3125 0.0000
vt 0.3125 0.1875
vt 0.0000 0.1875
vt 0.3125 -0.0000
vt 0.3125 0.1875
vt 0.5625 0.3125
vt 0.1250 0.6250
vt 0.1250 0.3125
vt 0.5625 0.3125
vt 0.1250 0.6250
vt 0.1250 0.3125
vt 0.8125 0.2500
vt 0.3125 0.7500
vt 0.3125 0.2500
vt 0.8750 0.1250
vt 0.4375 0.4375
vt 0.4375 0.1250
vt 0.8750 0.1250
vt 0.4375 0.4375
vt 0.4375 0.1250
vt 0.5625 0.4375
vt 0.1875 0.5625
vt 0.1875 0.4375
vt 0.1875 0.4375
vt 0.5625 0.5625
vt 0.1875 0.5625
vt 0.6250 0.1250
vt 0.3125 0.4375
vt 0.3125 0.1250
vt 0.5625 0.3125
vt 0.1875 0.4375
vt 0.1875 0.3125
vt 0.5000 0.3125
vt 0.1875 0.4375
vt 0.1875 0.3125
vt 0.8750 0.0625
vt 0.6875 0.0625
vt 0.7500 0.6250
vt 0.7500 0.6250
vt 0.8750 0.6250
vt 0.7500 0.8125
vt 1.0000 0.5000
vt 1.0000 0.1250
vt 0.0000 -0.0000
vt 0.0000 -0.0000
vt 0.0625 0.0625
vt -0.0000 0.0000
vt 0.5625 0.6250
vt 0.5625 0.6250
vt 0.8125 0.7500
vt 0.8750 0.4375
vt 0.8750 0.4375
vt 0.5625 0.5625
vt 0.5625 0.4375
vt 0.6250 0.4375
vt 0.5625 0.4375
vt 0.5000 0.4375
vn 0.0000 0.0000 -1.0000
vn 0.0000 0.0000 1.0000
vn 0.0000 1.0000 0.0000
vn 1.0000 0.0000 0.0000
vn -1.0000 0.0000 0.0000
vn 0.0000 -1.0000 -0.0000
vn 0.7071 0.0000 -0.7071
vn -0.7071 0.0000 0.7071
vn 0.7071 0.0000 0.7071
vn -0.7071 0.0000 -0.7071
usemtl None
s off
f 2/1/1 4/2/1 1/3/1
f 6/4/2 8/5/2 5/6/2
f 3/7/3 7/8/3 4/2/3
f 1/3/4 7/9/4 6/10/4
f 5/6/5 3/7/5 2/1/5
f 10/11/1 12/12/1 9/13/1
f 14/14/2 16/15/2 13/16/2
f 11/17/3 15/18/3 12/19/3
f 13/20/6 9/21/6 14/22/6
f 9/23/4 15/24/4 14/25/4
f 10/26/5 16/27/5 11/28/5
f 18/29/1 20/30/1 17/31/1
f 22/32/2 24/33/2 21/34/2
f 19/35/3 23/36/3 20/37/3
f 17/38/4 23/39/4 22/40/4
f 21/41/5 19/42/5 18/43/5
f 26/44/1 28/45/1 25/46/1
f 30/47/2 32/48/2 29/49/2
f 27/50/3 31/51/3 28/52/3
f 25/53/4 31/54/4 30/55/4
f 29/56/5 27/57/5 26/58/5
f 34/59/7 36/60/7 33/61/7
f 37/62/8 39/63/8 40/64/8
f 37/65/6 33/66/6 38/67/6
f 33/68/9 39/69/9 38/70/9
f 37/71/10 35/72/10 34/73/10
f 2/1/1 3/7/1 4/2/1
f 6/4/2 7/74/2 8/5/2
f 3/7/3 8/75/3 7/8/3
f 1/3/4 4/2/4 7/9/4
f 5/6/5 8/5/5 3/7/5
f 10/11/1 11/76/1 12/12/1
f 14/14/2 15/77/2 16/15/2
f 11/17/3 16/78/3 15/18/3
f 13/20/6 10/79/6 9/21/6
f 9/23/4 12/80/4 15/24/4
f 10/26/5 13/81/5 16/27/5
f 18/29/1 19/82/1 20/30/1
f 22/32/2 23/83/2 24/33/2
f 19/35/3 24/84/3 23/36/3
f 17/38/4 20/37/4 23/39/4
f 21/41/5 24/85/5 19/42/5
f 26/44/1 27/86/1 28/45/1
f 30/47/2 31/87/2 32/48/2
f 27/50/3 32/88/3 31/51/3
f 25/53/4 28/89/4 31/54/4
f 29/56/5 32/90/5 27/57/5
f 34/59/7 35/91/7 36/60/7
f 37/62/8 38/92/8 39/63/8
f 37/65/6 34/93/6 33/66/6
f 33/68/9 36/94/9 39/69/9
f 37/71/10 40/95/10 35/72/10
