# Blender v2.78 (sub 0) OBJ File: 'tamato.blend'
# www.blender.org
mtllib tamato.mtl
o Cube
v 0.421844 0.828187 0.518109
v 0.421844 0.952217 0.671871
v 0.470323 0.792978 0.563841
v 0.431539 0.945175 0.681017
v 0.421844 0.757769 0.609574
v 0.421844 0.938133 0.690163
v 0.373364 0.792978 0.563841
v 0.412148 0.945175 0.681017
v 0.508966 0.776878 0.552054
v 0.508966 0.654376 0.740631
v 0.576466 0.713099 0.529951
v 0.522466 0.641620 0.736210
v 0.508966 0.649320 0.507849
v 0.508966 0.628864 0.731790
v 0.441466 0.713099 0.529951
v 0.495466 0.641620 0.736210
v 0.482667 0.805959 0.580267
v 0.579310 0.746549 0.329094
v 0.526223 0.832876 0.588132
v 0.588021 0.751932 0.330667
v 0.488628 0.859793 0.564773
v 0.580502 0.757315 0.325995
v 0.445072 0.832876 0.556908
v 0.571791 0.751932 0.324422
v 0.458894 0.713418 0.454518
v 0.412101 0.741383 0.310688
v 0.531518 0.784844 0.415157
v 0.426625 0.755668 0.302815
v 0.449636 0.856269 0.426062
v 0.410249 0.769953 0.304997
v 0.377012 0.784844 0.465423
v 0.395724 0.755668 0.312869
v 0.420959 0.696062 0.467007
v 0.381804 0.548883 0.503579
v 0.388325 0.704744 0.512722
v 0.375277 0.550619 0.512722
v 0.420959 0.696062 0.558437
v 0.381804 0.548883 0.521865
v 0.453593 0.687380 0.512722
v 0.388331 0.547146 0.512722
v 0.402361 0.697574 0.447411
v 0.274621 0.619121 0.501411
v 0.375151 0.741879 0.514911
v 0.269179 0.627981 0.514911
v 0.402361 0.697574 0.582411
v 0.274621 0.619120 0.528411
v 0.429571 0.653270 0.514911
v 0.280063 0.610260 0.514911
v 0.584272 0.663580 0.498278
v 0.653018 0.565669 0.528394
v 0.564783 0.649896 0.535923
v 0.649120 0.562932 0.535923
v 0.584272 0.663580 0.573568
v 0.653018 0.565669 0.543452
v 0.603761 0.677264 0.535923
v 0.656915 0.568406 0.535923
v 0.624772 0.679682 0.471520
v 0.703764 0.652962 0.515521
v 0.614401 0.649022 0.526521
v 0.701690 0.646830 0.526521
v 0.624772 0.679682 0.581523
v 0.703764 0.652962 0.537521
v 0.635142 0.710341 0.526521
v 0.705838 0.659094 0.526521
v 0.608058 0.754457 0.430252
v 0.732720 0.760486 0.484252
v 0.610223 0.709675 0.497752
v 0.733154 0.751530 0.497752
v 0.608058 0.754457 0.565252
v 0.732720 0.760486 0.511252
v 0.605892 0.799238 0.497752
v 0.732287 0.769442 0.497752
v 0.566132 0.826800 0.446386
v 0.675747 0.922064 0.496392
v 0.625882 0.770651 0.495270
v 0.687697 0.910834 0.506169
v 0.591504 0.805438 0.577248
v 0.680821 0.917792 0.522564
v 0.531753 0.861588 0.528364
v 0.668871 0.929022 0.512788
v 0.408323 0.810775 0.428306
v 0.300179 0.889422 0.482306
v 0.443240 0.858789 0.495806
v 0.307162 0.899024 0.495806
v 0.408323 0.810775 0.563306
v 0.300179 0.889422 0.509306
v 0.373406 0.762762 0.495806
v 0.293196 0.879819 0.495806
v 0.473408 0.832110 0.510884
v 0.528322 0.962580 0.534488
v 0.474945 0.833990 0.496916
v 0.529859 0.964460 0.520519
v 0.498181 0.821450 0.512175
v 0.553095 0.951920 0.535779
v 0.499718 0.823330 0.498206
v 0.554632 0.953800 0.521810
v 0.467077 0.825663 0.516594
v 0.490114 0.965332 0.540197
v 0.468134 0.827849 0.502625
v 0.491171 0.967518 0.526229
v 0.493650 0.821062 0.517885
v 0.516688 0.960731 0.541488
v 0.494708 0.823248 0.503916
v 0.517745 0.962917 0.527520
v 0.485854 0.820400 0.507630
v 0.445795 0.956169 0.531233
v 0.485854 0.822828 0.493661
v 0.445795 0.958597 0.517265
v 0.511781 0.827825 0.508921
v 0.471722 0.963594 0.532524
v 0.511781 0.830253 0.494952
v 0.471722 0.966023 0.518556
v 0.486500 0.809673 0.507089
v 0.486500 0.953183 0.507089
v 0.486500 0.809673 0.492911
v 0.486500 0.953183 0.492911
v 0.513500 0.809673 0.507089
v 0.513500 0.953183 0.507089
v 0.513500 0.809673 0.492911
v 0.513500 0.953183 0.492911
v 0.635000 0.635218 0.365000
v 0.635000 0.635218 0.635000
v 0.365000 0.635218 0.635000
v 0.365000 0.635218 0.365000
v 0.635000 0.864782 0.365000
v 0.635000 0.864782 0.635000
v 0.365000 0.864782 0.635000
v 0.365000 0.864782 0.365000
vt 0.0000 0.5000
vt 0.5000 0.5000
vt 0.5000 1.0000
vt 0.0000 1.0000
vt 0.0000 0.5000
vt 0.5000 0.5000
vt 0.5000 1.0000
vt 0.0000 1.0000
vt 0.0000 0.5000
vt 0.5000 1.0000
vt 0.0000 1.0000
vt 0.0000 0.5000
vt 0.5000 0.5000
vt 0.0000 1.0000
vt 0.0000 0.5000
vt 0.5000 0.5000
vt 0.5000 1.0000
vt 0.0000 1.0000
vt 0.5000 0.5000
vt 0.5000 1.0000
vt 0.0000 0.5000
vt 0.5000 0.5000
vt 0.5000 1.0000
vt 0.0000 1.0000
vt 0.0000 0.5000
vt 0.5000 0.5000
vt 0.5000 1.0000
vt 0.0000 1.0000
vt 0.0000 0.5000
vt 0.5000 1.0000
vt 0.0000 1.0000
vt 0.0000 0.5000
vt 0.5000 0.5000
vt 0.0000 1.0000
vt 0.0000 0.5000
vt 0.5000 0.5000
vt 0.5000 1.0000
vt 0.0000 1.0000
vt 0.5000 0.5000
vt 0.5000 1.0000
vt 0.0000 0.5000
vt 0.5000 0.5000
vt 0.5000 1.0000
vt 0.0000 1.0000
vt 0.0000 0.5000
vt 0.5000 0.5000
vt 0.5000 1.0000
vt 0.0000 1.0000
vt 0.0000 0.5000
vt 0.5000 1.0000
vt 0.0000 1.0000
vt 0.0000 0.5000
vt 0.5000 0.5000
vt 0.0000 1.0000
vt 0.0000 0.5000
vt 0.5000 0.5000
vt 0.5000 1.0000
vt 0.0000 1.0000
vt 0.5000 0.5000
vt 0.5000 1.0000
vt 0.0000 0.5000
vt 0.5000 0.5000
vt 0.5000 1.0000
vt 0.0000 1.0000
vt 0.0000 0.5000
vt 0.5000 0.5000
vt 0.5000 1.0000
vt 0.0000 1.0000
vt 0.0000 0.5000
vt 0.5000 1.0000
vt 0.0000 1.0000
vt 0.0000 0.5000
vt 0.5000 0.5000
vt 0.0000 1.0000
vt 0.0000 0.5000
vt 0.5000 0.5000
vt 0.5000 1.0000
vt 0.0000 1.0000
vt 0.5000 0.5000
vt 0.5000 1.0000
vt 0.0000 0.5000
vt 0.5000 0.5000
vt 0.5000 1.0000
vt 0.0000 1.0000
vt 0.0000 0.5000
vt 0.5000 0.5000
vt 0.5000 1.0000
vt 0.0000 1.0000
vt 0.0000 0.5000
vt 0.5000 1.0000
vt 0.0000 1.0000
vt 0.0000 0.5000
vt 0.5000 0.5000
vt 0.0000 1.0000
vt 0.0000 0.5000
vt 0.5000 0.5000
vt 0.5000 1.0000
vt 0.0000 1.0000
vt 0.5000 0.5000
vt 0.5000 1.0000
vt 0.0000 0.5000
vt 0.5000 0.5000
vt 0.5000 1.0000
vt 0.0000 1.0000
vt 0.0000 0.5000
vt 0.5000 0.5000
vt 0.5000 1.0000
vt 0.0000 1.0000
vt 0.0000 0.5000
vt 0.5000 1.0000
vt 0.0000 1.0000
vt 0.0000 0.5000
vt 0.5000 0.5000
vt 0.0000 1.0000
vt 0.0000 0.5000
vt 0.5000 0.5000
vt 0.5000 1.0000
vt 0.0000 1.0000
vt 0.5000 0.5000
vt 0.5000 1.0000
vt 0.0000 0.5000
vt 0.5000 0.5000
vt 0.5000 1.0000
vt 0.0000 1.0000
vt 0.0000 0.5000
vt 0.5000 0.5000
vt 0.5000 1.0000
vt 0.0000 1.0000
vt 0.0000 0.5000
vt 0.5000 1.0000
vt 0.0000 1.0000
vt 0.0000 0.5000
vt 0.5000 0.5000
vt 0.0000 1.0000
vt 0.0000 0.5000
vt 0.5000 0.5000
vt 0.5000 1.0000
vt 0.0000 1.0000
vt 0.5000 0.5000
vt 0.5000 1.0000
vt 0.0000 0.5000
vt 0.5000 0.5000
vt 0.5000 1.0000
vt 0.0000 1.0000
vt 0.0000 0.5000
vt 0.5000 0.5000
vt 0.5000 1.0000
vt 0.0000 1.0000
vt 0.0000 0.5000
vt 0.5000 1.0000
vt 0.0000 1.0000
vt 0.0000 0.5000
vt 0.5000 0.5000
vt 0.0000 1.0000
vt 0.0000 0.5000
vt 0.5000 0.5000
vt 0.5000 1.0000
vt 0.0000 1.0000
vt 0.5000 0.5000
vt 0.5000 1.0000
vt 0.0000 0.5000
vt 0.5000 0.5000
vt 0.5000 1.0000
vt 0.0000 1.0000
vt 0.0000 0.5000
vt 0.5000 0.5000
vt 0.5000 1.0000
vt 0.0000 1.0000
vt 0.0000 0.5000
vt 0.5000 1.0000
vt 0.0000 1.0000
vt 0.0000 0.5000
vt 0.5000 0.5000
vt 0.0000 1.0000
vt 0.0000 0.5000
vt 0.5000 0.5000
vt 0.5000 1.0000
vt 0.0000 1.0000
vt 0.5000 0.5000
vt 0.5000 1.0000
vt 0.0000 0.5000
vt 0.5000 0.5000
vt 0.5000 1.0000
vt 0.0000 1.0000
vt 0.0000 0.5000
vt 0.5000 0.5000
vt 0.5000 1.0000
vt 0.0000 1.0000
vt 0.0000 0.5000
vt 0.5000 1.0000
vt 0.0000 1.0000
vt 0.0000 0.5000
vt 0.5000 0.5000
vt 0.0000 1.0000
vt 0.0000 0.5000
vt 0.5000 0.5000
vt 0.5000 1.0000
vt 0.0000 1.0000
vt 0.5000 0.5000
vt 0.5000 1.0000
vt 0.0000 0.5000
vt 0.5000 0.5000
vt 0.5000 1.0000
vt 0.0000 1.0000
vt 0.0000 0.5000
vt 0.5000 0.5000
vt 0.5000 1.0000
vt 0.0000 1.0000
vt 0.0000 0.5000
vt 0.5000 1.0000
vt 0.0000 1.0000
vt 0.0000 0.5000
vt 0.5000 0.5000
vt 0.0000 1.0000
vt 0.0000 0.5000
vt 0.5000 0.5000
vt 0.5000 1.0000
vt 0.0000 1.0000
vt 0.5000 0.5000
vt 0.5000 1.0000
vt 0.5000 0.5000
vt 1.0000 0.5000
vt 1.0000 1.0000
vt 0.5000 1.0000
vt 0.5000 0.5000
vt 1.0000 0.5000
vt 1.0000 1.0000
vt 0.5000 1.0000
vt 0.5000 0.5000
vt 1.0000 0.5000
vt 1.0000 1.0000
vt 0.5000 1.0000
vt 0.5000 0.5000
vt 1.0000 0.5000
vt 1.0000 1.0000
vt 0.5000 1.0000
vt 0.0000 0.5000
vt 0.0000 1.0000
vt 0.5000 0.5000
vt 0.5000 1.0000
vt 0.5000 0.5000
vt 1.0000 0.5000
vt 1.0000 1.0000
vt 0.5000 1.0000
vt 0.5000 0.5000
vt 1.0000 0.5000
vt 1.0000 1.0000
vt 0.5000 1.0000
vt 0.5000 0.5000
vt 1.0000 0.5000
vt 1.0000 1.0000
vt 0.5000 1.0000
vt 0.5000 0.5000
vt 1.0000 0.5000
vt 1.0000 1.0000
vt 0.5000 1.0000
vt 0.0000 0.5000
vt 0.0000 1.0000
vt 0.5000 0.5000
vt 0.5000 1.0000
vt 0.5000 0.5000
vt 1.0000 0.5000
vt 1.0000 1.0000
vt 0.5000 1.0000
vt 0.5000 0.5000
vt 1.0000 0.5000
vt 1.0000 1.0000
vt 0.5000 1.0000
vt 0.5000 0.5000
vt 1.0000 0.5000
vt 1.0000 1.0000
vt 0.5000 1.0000
vt 0.5000 0.5000
vt 1.0000 0.5000
vt 1.0000 1.0000
vt 0.5000 1.0000
vt 0.0000 0.5000
vt 0.0000 1.0000
vt 0.5000 0.5000
vt 0.5000 1.0000
vt 0.5000 0.5000
vt 1.0000 0.5000
vt 1.0000 1.0000
vt 0.5000 1.0000
vt 0.5000 0.5000
vt 1.0000 0.5000
vt 1.0000 1.0000
vt 0.5000 1.0000
vt 0.5000 0.5000
vt 1.0000 0.5000
vt 1.0000 1.0000
vt 0.5000 1.0000
vt 0.5000 0.5000
vt 1.0000 0.5000
vt 1.0000 1.0000
vt 0.5000 1.0000
vt 0.0000 0.5000
vt 0.0000 1.0000
vt 0.5000 0.5000
vt 0.5000 1.0000
vt 0.0000 0.5000
vt 0.5000 0.5000
vt 0.5000 1.0000
vt 0.0000 1.0000
vt 0.0000 0.5000
vt 0.5000 0.5000
vt 0.5000 1.0000
vt 0.0000 1.0000
vt 0.5000 0.5000
vt 0.5000 1.0000
vt 0.0000 1.0000
vt 0.0000 0.5000
vt 0.5000 0.5000
vt 0.0000 1.0000
vt 0.0000 0.5000
vt 0.5000 0.5000
vt 0.5000 1.0000
vt 0.5000 0.5000
vt 0.5000 1.0000
vt 0.0000 1.0000
vn 0.7567 0.5088 -0.4104
vn 0.7567 -0.2667 0.5969
vn 0.0000 0.7924 0.6100
vn -0.7567 -0.2667 0.5969
vn -0.7567 0.5088 -0.4104
vn 0.0000 -0.7924 -0.6100
vn 0.6965 0.6017 0.3909
vn 0.6965 -0.7146 -0.0653
vn 0.0000 -0.3274 0.9449
vn -0.6965 -0.7146 -0.0653
vn -0.6965 0.6017 0.3909
vn 0.0000 0.3274 -0.9449
vn 0.4413 -0.8203 0.3638
vn 0.6185 0.7798 -0.0967
vn 0.3432 -0.2947 -0.8919
vn -0.3941 0.7798 -0.4863
vn -0.5713 -0.8203 -0.0258
vn -0.3432 0.2947 0.8919
vn 0.5645 -0.7563 -0.3307
vn 0.4743 0.6366 -0.6081
vn -0.3028 -0.2050 -0.9307
vn -0.7413 0.6366 -0.2127
vn -0.6511 -0.7563 0.0648
vn 0.3028 0.2050 0.9307
vn -0.8058 0.0682 -0.5882
vn -0.8058 0.0682 0.5882
vn -0.2571 -0.9664 0.0000
vn 0.7332 -0.3412 0.5882
vn 0.7332 -0.3412 -0.5882
vn 0.2571 0.9664 0.0000
vn -0.5879 0.5470 -0.5960
vn -0.5879 0.5470 0.5960
vn -0.8521 -0.5233 -0.0000
vn 0.2220 -0.7717 0.5960
vn 0.2220 -0.7717 -0.5960
vn 0.8521 0.5233 0.0000
vn -0.6088 -0.5904 -0.5298
vn -0.6088 -0.5904 0.5298
vn 0.5746 -0.8184 0.0000
vn 0.7621 0.3721 0.5298
vn 0.7621 0.3721 -0.5298
vn -0.5746 0.8184 -0.0000
vn -0.0219 -0.8715 -0.4899
vn -0.0219 -0.8715 0.4899
vn 0.9473 -0.3204 0.0000
vn 0.5117 0.7058 0.4899
vn 0.5117 0.7058 -0.4899
vn -0.9473 0.3204 0.0000
vn 0.2717 -0.7979 -0.5381
vn 0.2717 -0.7979 0.5381
vn 0.9988 0.0483 0.0000
vn 0.1934 0.8204 0.5381
vn 0.1934 0.8204 -0.5381
vn -0.9988 -0.0483 -0.0000
vn 0.5256 -0.1669 -0.8342
vn 0.7825 -0.3832 0.4908
vn 0.6918 0.7220 -0.0163
vn -0.1705 0.5375 0.8258
vn -0.4274 0.7538 -0.4991
vn -0.6918 -0.7220 0.0163
vn 0.2183 0.7383 -0.6381
vn 0.2183 0.7383 0.6381
vn -0.8087 0.5882 0.0000
vn -0.6351 -0.4352 0.6381
vn -0.6351 -0.4352 -0.6381
vn 0.8087 -0.5882 -0.0000
vn -0.9175 0.3948 -0.0478
vn 0.1084 0.1326 -0.9852
vn 0.9175 -0.3948 0.0478
vn -0.1084 -0.1326 0.9852
vn -0.3826 -0.9091 -0.1645
vn 0.3826 0.9091 0.1645
vn -0.9842 0.1704 -0.0478
vn 0.0746 0.1542 -0.9852
vn 0.9842 -0.1704 0.0478
vn -0.0746 -0.1542 0.9852
vn -0.1605 -0.9732 -0.1645
vn 0.1605 0.9732 0.1645
vn -0.9603 -0.2750 -0.0478
vn 0.0000 0.1713 -0.9852
vn 0.9603 0.2750 0.0478
vn 0.0000 -0.1713 0.9852
vn 0.2791 -0.9461 -0.1645
vn -0.2791 0.9461 0.1645
vn -1.0000 0.0000 0.0000
vn 0.0000 0.0000 -1.0000
vn 1.0000 0.0000 0.0000
vn 0.0000 0.0000 1.0000
vn 0.0000 -1.0000 0.0000
vn 0.0000 1.0000 0.0000
usemtl Material
s off
f 1/1/1 2/2/1 4/3/1 3/4/1
f 3/5/2 4/6/2 6/7/2 5/8/2
f 4/9/3 2/2/3 8/10/3 6/11/3
f 5/12/4 6/13/4 8/10/4 7/14/4
f 7/15/5 8/16/5 2/17/5 1/18/5
f 1/1/6 3/19/6 5/20/6 7/14/6
f 9/21/7 10/22/7 12/23/7 11/24/7
f 11/25/8 12/26/8 14/27/8 13/28/8
f 12/29/9 10/22/9 16/30/9 14/31/9
f 13/32/10 14/33/10 16/30/10 15/34/10
f 15/35/11 16/36/11 10/37/11 9/38/11
f 9/21/12 11/39/12 13/40/12 15/34/12
f 17/41/13 18/42/13 20/43/13 19/44/13
f 19/45/14 20/46/14 22/47/14 21/48/14
f 20/49/15 18/42/15 24/50/15 22/51/15
f 21/52/16 22/53/16 24/50/16 23/54/16
f 23/55/17 24/56/17 18/57/17 17/58/17
f 17/41/18 19/59/18 21/60/18 23/54/18
f 25/61/19 26/62/19 28/63/19 27/64/19
f 27/65/20 28/66/20 30/67/20 29/68/20
f 28/69/21 26/62/21 32/70/21 30/71/21
f 29/72/22 30/73/22 32/70/22 31/74/22
f 31/75/23 32/76/23 26/77/23 25/78/23
f 25/61/24 27/79/24 29/80/24 31/74/24
f 33/81/25 34/82/25 36/83/25 35/84/25
f 35/85/26 36/86/26 38/87/26 37/88/26
f 36/89/27 34/82/27 40/90/27 38/91/27
f 37/92/28 38/93/28 40/90/28 39/94/28
f 39/95/29 40/96/29 34/97/29 33/98/29
f 33/81/30 35/99/30 37/100/30 39/94/30
f 41/101/31 42/102/31 44/103/31 43/104/31
f 43/105/32 44/106/32 46/107/32 45/108/32
f 44/109/33 42/102/33 48/110/33 46/111/33
f 45/112/34 46/113/34 48/110/34 47/114/34
f 47/115/35 48/116/35 42/117/35 41/118/35
f 41/101/36 43/119/36 45/120/36 47/114/36
f 49/121/37 50/122/37 52/123/37 51/124/37
f 51/125/38 52/126/38 54/127/38 53/128/38
f 52/129/39 50/122/39 56/130/39 54/131/39
f 53/132/40 54/133/40 56/130/40 55/134/40
f 55/135/41 56/136/41 50/137/41 49/138/41
f 49/121/42 51/139/42 53/140/42 55/134/42
f 57/141/43 58/142/43 60/143/43 59/144/43
f 59/145/44 60/146/44 62/147/44 61/148/44
f 60/149/45 58/142/45 64/150/45 62/151/45
f 61/152/46 62/153/46 64/150/46 63/154/46
f 63/155/47 64/156/47 58/157/47 57/158/47
f 57/141/48 59/159/48 61/160/48 63/154/48
f 65/161/49 66/162/49 68/163/49 67/164/49
f 67/165/50 68/166/50 70/167/50 69/168/50
f 68/169/51 66/162/51 72/170/51 70/171/51
f 69/172/52 70/173/52 72/170/52 71/174/52
f 71/175/53 72/176/53 66/177/53 65/178/53
f 65/161/54 67/179/54 69/180/54 71/174/54
f 73/181/55 74/182/55 76/183/55 75/184/55
f 75/185/56 76/186/56 78/187/56 77/188/56
f 76/189/57 74/182/57 80/190/57 78/191/57
f 77/192/58 78/193/58 80/190/58 79/194/58
f 79/195/59 80/196/59 74/197/59 73/198/59
f 73/181/60 75/199/60 77/200/60 79/194/60
f 81/201/61 82/202/61 84/203/61 83/204/61
f 83/205/62 84/206/62 86/207/62 85/208/62
f 84/209/63 82/202/63 88/210/63 86/211/63
f 85/212/64 86/213/64 88/210/64 87/214/64
f 87/215/65 88/216/65 82/217/65 81/218/65
f 81/201/66 83/219/66 85/220/66 87/214/66
f 89/221/67 90/222/67 92/223/67 91/224/67
f 91/225/68 92/226/68 96/227/68 95/228/68
f 95/229/69 96/230/69 94/231/69 93/232/69
f 93/233/70 94/234/70 90/235/70 89/236/70
f 91/237/71 95/229/71 93/232/71 89/238/71
f 96/239/72 92/226/72 90/235/72 94/240/72
f 97/241/73 98/242/73 100/243/73 99/244/73
f 99/245/74 100/246/74 104/247/74 103/248/74
f 103/249/75 104/250/75 102/251/75 101/252/75
f 101/253/76 102/254/76 98/255/76 97/256/76
f 99/257/77 103/249/77 101/252/77 97/258/77
f 104/259/78 100/246/78 98/255/78 102/260/78
f 105/261/79 106/262/79 108/263/79 107/264/79
f 107/265/80 108/266/80 112/267/80 111/268/80
f 111/269/81 112/270/81 110/271/81 109/272/81
f 109/273/82 110/274/82 106/275/82 105/276/82
f 107/277/83 111/269/83 109/272/83 105/278/83
f 112/279/84 108/266/84 106/275/84 110/280/84
f 113/281/85 114/282/85 116/283/85 115/284/85
f 115/285/86 116/286/86 120/287/86 119/288/86
f 119/289/87 120/290/87 118/291/87 117/292/87
f 117/293/88 118/294/88 114/295/88 113/296/88
f 115/297/89 119/289/89 117/292/89 113/298/89
f 120/299/90 116/286/90 114/295/90 118/300/90
f 121/301/89 122/302/89 123/303/89 124/304/89
f 125/305/90 128/306/90 127/307/90 126/308/90
f 121/301/87 125/309/87 126/310/87 122/311/87
f 122/312/88 126/313/88 127/307/88 123/314/88
f 123/315/85 127/316/85 128/317/85 124/304/85
f 125/305/86 121/318/86 124/319/86 128/320/86
