# Blender v2.77 (sub 0) OBJ File: 'Trader.blend'
# www.blender.org
mtllib tradingtable.mtl
o Cube
v 1.000000 0.000005 0.000000
v 1.000000 0.000005 1.000000
v -0.000000 0.000005 1.000000
v 0.000000 0.000005 -0.000000
v 1.000000 0.000005 0.500000
v 0.500000 0.000005 -0.000000
v 1.000000 0.500005 0.000000
v 0.500000 0.000005 1.000000
v 1.000000 0.500005 1.000000
v 0.000000 0.000005 0.500000
v -0.000000 0.500005 1.000000
v 0.000000 0.500005 -0.000000
v 0.625000 1.000005 0.125000
v 0.500000 1.000005 1.000000
v 0.500000 0.500005 0.000000
v 0.000000 0.500005 0.500000
v 0.500000 0.500005 1.000000
v 1.000000 0.500005 0.500000
v 0.500000 0.000005 0.500000
v 1.000000 0.750005 0.000000
v 1.000000 0.750005 1.000000
v -0.000000 0.750005 1.000000
v 0.000000 0.750005 -0.000000
v 0.250000 0.500005 -0.000000
v 0.750000 0.500005 0.000000
v 0.500000 0.750005 0.000000
v 0.000000 0.500005 0.250000
v -0.000000 0.500005 0.750000
v 0.000000 0.750005 0.500000
v 0.250000 0.500005 1.000000
v 0.750000 0.500005 1.000000
v 0.500000 0.750005 1.000000
v 1.000000 0.500005 0.750000
v 1.000000 0.500005 0.250000
v 1.000000 0.750005 0.500000
v 1.000000 0.750005 0.250000
v 0.750000 0.750005 1.000000
v -0.000000 0.750005 0.750000
v 0.750000 0.750005 0.000000
v 0.250000 0.750005 0.000000
v 0.000000 0.750005 0.250000
v 0.250000 0.750005 1.000000
v 1.000000 0.750005 0.750000
v 0.625000 1.000005 0.000000
v 0.625000 1.000005 1.000000
v 0.500000 0.875005 0.000000
v 0.375000 1.000005 0.000000
v 0.375000 1.000005 1.000000
v 0.500000 0.875005 1.000000
v 1.000000 0.750005 0.375000
v 0.625000 0.750005 1.000000
v 0.875000 0.750005 1.000000
v 0.750000 0.875005 1.000000
v 0.000000 0.750005 0.625000
v -0.000000 0.750005 0.875000
v 0.625000 0.750005 0.000000
v 0.875000 0.750005 0.000000
v 0.750000 0.875005 0.000000
v 0.125000 0.750005 0.000000
v 0.375000 0.750005 0.000000
v 0.250000 0.875005 0.000000
v 0.000000 0.750005 0.125000
v 0.000000 0.750005 0.375000
v 0.125000 0.750005 1.000000
v 0.375000 0.750005 1.000000
v 0.250000 0.875005 1.000000
v 1.000000 0.750005 0.875000
v 1.000000 0.750005 0.625000
v 0.375000 0.875005 1.000000
v 0.375000 0.875005 0.000000
v 0.625000 0.875005 0.000000
v 0.625000 0.875005 1.000000
v 0.625000 0.875005 0.500000
v 0.625000 0.875005 0.750000
v 0.625000 0.875005 0.250000
v 0.625000 0.875005 0.875000
v 0.625000 0.875005 0.375000
v 0.625000 0.875005 0.625000
v 0.625000 0.875005 0.125000
v 0.375000 0.875005 0.500000
v 0.375000 0.875005 0.250000
v 0.375000 0.875005 0.750000
v 0.375000 0.875005 0.125000
v 0.375000 0.875005 0.625000
v 0.375000 0.875005 0.375000
v 0.375000 0.875005 0.875000
v 0.375000 1.000005 0.750000
v 0.375000 1.000005 0.250000
v 0.500000 1.000005 0.750000
v 0.375000 1.000005 0.125000
v 0.625000 1.000005 0.750000
v 0.625000 1.000005 0.250000
v 0.625000 1.000005 0.875000
v 0.500000 1.000005 0.000000
v 0.375000 1.000005 0.875000
v 0.500000 0.930283 0.875000
v 0.437500 1.000005 1.000000
v 0.625000 1.000005 0.812500
v 0.375000 1.000005 0.812500
v 0.437500 1.000005 0.750000
v 0.375000 1.000005 0.937500
v 0.625000 1.000005 0.937500
v 0.562500 1.000005 1.000000
v 0.562500 1.000005 0.750000
v 0.500000 0.930283 0.812500
v 0.500000 0.930283 0.937500
v 0.437500 0.930283 0.875000
v 0.562500 0.930283 0.875000
v 0.562500 0.930283 0.937500
v 0.437500 0.930283 0.812500
v 0.437500 0.930283 0.937500
v 0.562500 0.930283 0.812500
v 0.500000 1.000005 0.250000
v 0.500000 0.930283 0.125000
v 0.625000 1.000005 0.062500
v 0.375000 1.000005 0.062500
v 0.437500 1.000005 0.000000
v 0.562500 1.000005 0.000000
v 0.375000 1.000005 0.187500
v 0.625000 1.000005 0.187500
v 0.562500 1.000005 0.250000
v 0.437500 1.000005 0.250000
v 0.500000 0.930283 0.187500
v 0.500000 0.930283 0.062500
v 0.562500 0.930283 0.125000
v 0.437500 0.930283 0.125000
v 0.437500 0.930283 0.062500
v 0.562500 0.930283 0.187500
v 0.562500 0.930283 0.062500
v 0.437500 0.930283 0.187500
v 1.000000 0.500005 0.000000
v 1.000000 0.750005 0.000000
v 1.000000 0.500005 0.250000
v 1.000000 0.750005 0.250000
v 1.000000 0.750005 0.125000
vt 0.9922 0.7734
vt 0.8047 1.0000
vt 0.8047 0.7734
vt 0.8750 0.6875
vt 0.8750 0.9531
vt 0.7422 0.9531
vt 0.7188 0.7578
vt 0.7188 0.8359
vt 0.6797 0.8359
vt 0.7188 0.7578
vt 0.7188 0.8359
vt 0.6797 0.8359
vt 0.6094 0.6875
vt 0.6094 0.9531
vt 0.4766 0.9531
vt 0.4844 0.6484
vt 0.2500 0.6484
vt 0.4844 0.1797
vt 0.9844 0.6484
vt 0.7500 0.6484
vt 0.9844 0.1797
vt 0.6094 0.9531
vt 0.4766 0.9531
vt 0.6094 0.6875
vt 0.8750 0.9531
vt 0.7422 0.9531
vt 0.8750 0.6875
vt 0.1875 0.9844
vt 0.1406 0.9297
vt 0.1875 0.8750
vt 0.4844 0.6484
vt 0.2500 0.6484
vt 0.4844 0.1797
vt 0.9844 0.6484
vt 0.7500 0.6484
vt 0.9844 0.1797
vt 0.9922 0.7734
vt 0.8047 1.0000
vt 0.8047 0.7734
vt 0.9922 0.7734
vt 0.8047 0.9922
vt 0.8047 0.7734
vt 0.8047 0.7734
vt 0.9922 1.0000
vt 0.8047 1.0000
vt 0.6797 0.8359
vt 0.6406 0.8359
vt 0.6406 0.7578
vt 0.7188 0.8359
vt 0.6797 0.8359
vt 0.7188 0.7578
vt 0.7188 0.8359
vt 0.6797 0.8359
vt 0.7188 0.7578
vt 0.7188 0.8359
vt 0.6797 0.8359
vt 0.7188 0.7578
vt 0.7188 0.8359
vt 0.6797 0.8359
vt 0.7188 0.7578
vt 0.6484 0.7734
vt 0.7109 0.8359
vt 0.6484 0.8359
vt 0.7188 0.7578
vt 0.7188 0.8359
vt 0.6797 0.8359
vt 0.6484 0.8359
vt 0.7109 0.7734
vt 0.7109 0.8359
vt 0.7188 0.7578
vt 0.7188 0.8359
vt 0.6797 0.8359
vt 0.7188 0.8359
vt 0.6797 0.8359
vt 0.7188 0.7578
vt 0.7188 0.8359
vt 0.6797 0.8359
vt 0.7188 0.7578
vt 0.7188 0.8359
vt 0.6797 0.8359
vt 0.7188 0.7578
vt 0.7188 0.8359
vt 0.6797 0.8359
vt 0.7188 0.7578
vt 0.7188 0.8359
vt 0.6797 0.8359
vt 0.7188 0.7578
vt 0.7188 0.8359
vt 0.6797 0.8359
vt 0.7188 0.7578
vt 0.7109 0.8359
vt 0.6484 0.7734
vt 0.7109 0.7734
vt 0.7109 0.8359
vt 0.6484 0.7734
vt 0.7109 0.7734
vt 0.2734 0.6719
vt 0.2500 0.6953
vt 0.2578 0.6719
vt 0.1797 0.6172
vt 0.1562 0.6406
vt 0.1484 0.6172
vt 0.6484 0.7734
vt 0.7109 0.8359
vt 0.6484 0.8359
vt 0.1406 0.9297
vt 0.1875 0.8750
vt 0.1875 0.9844
vt 0.6484 0.7734
vt 0.7109 0.8359
vt 0.6484 0.8359
vt 0.7109 0.8359
vt 0.6484 0.7734
vt 0.7109 0.7734
vt 0.7109 0.8359
vt 0.6484 0.7734
vt 0.7109 0.7734
vt 0.8984 0.9375
vt 0.8047 0.9922
vt 0.8047 0.9375
vt 0.0547 0.5859
vt 0.0312 0.6172
vt 0.0312 0.5859
vt 0.1250 0.5625
vt 0.1094 0.5859
vt 0.1094 0.5625
vt 0.0938 0.7891
vt 0.0391 0.8438
vt 0.0391 0.8125
vt 0.1016 0.9766
vt 0.0547 0.9219
vt 0.1016 0.8672
vt 0.1562 0.9141
vt 0.1094 0.9453
vt 0.1094 0.8906
vt 0.0469 0.8594
vt 0.0938 0.8594
vt 0.0938 0.8906
vt 0.1562 0.8125
vt 0.1562 0.7812
vt 0.2109 0.7578
vt 0.1016 0.8125
vt 0.1484 0.7812
vt 0.1484 0.8359
vt 0.0703 0.6953
vt 0.0469 0.6719
vt 0.0703 0.6719
vt 0.1172 0.6719
vt 0.1484 0.6953
vt 0.1172 0.6953
vt 0.0781 0.5859
vt 0.0547 0.6172
vt 0.1953 0.6953
vt 0.2266 0.6719
vt 0.2266 0.6953
vt 0.2734 0.6719
vt 0.2891 0.6953
vt 0.2812 0.6953
vt 0.0000 0.6406
vt 0.0234 0.6719
vt 0.0000 0.6719
vt 0.0000 0.6172
vt 0.0312 0.6406
vt 0.0000 0.5859
vt 0.0234 0.5625
vt 0.0000 0.5625
vt 0.1953 0.7266
vt 0.2266 0.7266
vt 0.0469 0.7266
vt 0.0469 0.6953
vt 0.0781 0.6172
vt 0.0547 0.6406
vt 0.1484 0.7266
vt 0.1172 0.7266
vt 0.0938 0.6953
vt 0.1172 0.7266
vt 0.0938 0.7266
vt 0.1484 0.5625
vt 0.1797 0.5859
vt 0.1484 0.5859
vt 0.1250 0.5859
vt 0.1719 0.7266
vt 0.1484 0.6953
vt 0.1719 0.6953
vt 0.9766 0.9688
vt 1.0000 1.0000
vt 0.9688 1.0000
vt 0.3125 0.6953
vt 0.2891 0.6719
vt 0.3125 0.6719
vt 0.1719 0.6953
vt 0.1953 0.6719
vt 0.1953 0.6953
vt 0.1094 0.6172
vt 0.1953 0.7266
vt 0.2266 0.6953
vt 0.2500 0.6719
vt 0.2500 0.6953
vt 0.1484 0.6719
vt 0.1719 0.6719
vt 0.0938 0.6719
vt 0.1172 0.6953
vt 0.1250 0.6172
vt 0.0000 0.0000
vt 0.0000 0.0000
vt 0.0000 0.0000
vt 0.5000 0.7266
vt 0.7266 0.7031
vt 0.7266 0.7266
vt 0.6875 0.8125
vt 0.6406 0.8281
vt 0.6484 0.7969
vt 0.7188 0.8281
vt 0.6719 0.8125
vt 0.7109 0.7969
vt 0.6719 0.8125
vt 0.7188 0.8281
vt 0.6406 0.8281
vt 0.6406 0.8281
vt 0.6875 0.8125
vt 0.7188 0.8281
vt 0.7344 0.9062
vt 0.4844 0.9453
vt 0.4844 0.9062
vt 0.7266 0.7266
vt 0.5000 0.7031
vt 0.7266 0.7031
vt 0.4844 0.9453
vt 0.7344 0.9062
vt 0.7344 0.9453
vt 0.7188 0.8359
vt 0.6797 0.8359
vt 0.7188 0.7578
vt 0.9922 1.0000
vt 0.6406 0.8359
vt 0.6406 0.7578
vt 0.6406 0.8359
vt 0.6406 0.7578
vt 0.3438 0.9531
vt 0.3438 0.6875
vt 0.0156 0.1797
vt 0.0156 0.6484
vt 0.5156 0.1797
vt 0.5156 0.6484
vt 0.3438 0.6875
vt 0.3438 0.9531
vt 0.1406 0.8750
vt 0.1406 0.8984
vt 0.1406 0.9844
vt 0.1406 0.9609
vt 0.0156 0.1797
vt 0.0156 0.6484
vt 0.5156 0.1797
vt 0.5156 0.6484
vt 0.9922 1.0000
vt 0.9922 0.9922
vt 0.9922 0.7734
vt 0.7188 0.7578
vt 0.7188 0.8359
vt 0.6406 0.7578
vt 0.6406 0.8359
vt 0.6406 0.7578
vt 0.6406 0.8359
vt 0.6406 0.7578
vt 0.6406 0.8359
vt 0.6406 0.7578
vt 0.6406 0.8359
vt 0.7109 0.7734
vt 0.6406 0.8359
vt 0.6406 0.7578
vt 0.6484 0.7734
vt 0.6406 0.8359
vt 0.6406 0.7578
vt 0.6406 0.7578
vt 0.6406 0.8359
vt 0.6406 0.7578
vt 0.6406 0.8359
vt 0.6406 0.7578
vt 0.6406 0.8359
vt 0.6406 0.7578
vt 0.6406 0.8359
vt 0.6406 0.7578
vt 0.6406 0.8359
vt 0.6406 0.7578
vt 0.6406 0.8359
vt 0.6484 0.8359
vt 0.6484 0.8359
vt 0.2734 0.6953
vt 0.1797 0.6406
vt 0.7109 0.7734
vt 0.1406 0.9844
vt 0.1406 0.9531
vt 0.1406 0.8984
vt 0.1406 0.8750
vt 0.7109 0.7734
vt 0.6484 0.8359
vt 0.6484 0.8359
vt 0.8047 0.7734
vt 0.8984 0.7734
vt 0.8984 0.8281
vt 0.8984 0.8828
vt 0.8047 0.8281
vt 0.8047 0.8828
vt 0.8984 0.9922
vt 0.0391 0.7891
vt 0.0938 0.8984
vt 0.0391 0.8672
vt 0.0391 0.8984
vt 0.0547 0.8672
vt 0.0547 0.8984
vt 0.0547 0.9766
vt 0.0547 0.9531
vt 0.1094 0.8359
vt 0.1562 0.8359
vt 0.1562 0.8594
vt 0.1562 0.8906
vt 0.1562 0.9453
vt 0.0938 0.9141
vt 0.0469 0.9141
vt 0.0469 0.8047
vt 0.0938 0.8359
vt 0.0938 0.8047
vt 0.2109 0.8672
vt 0.1562 0.8359
vt 0.1562 0.8672
vt 0.1562 0.7578
vt 0.1484 0.8906
vt 0.1016 0.8672
vt 0.1016 0.8359
vt 0.1016 0.8906
vt 0.1016 0.7812
vt 0.1484 0.6719
vt 0.1953 0.6719
vt 0.2891 0.6719
vt 0.0703 0.7266
vt 0.0781 0.6406
vt 0.1797 0.5625
vt 0.1484 0.7266
vt 1.0000 0.9688
vt 0.2969 0.6953
vt 0.1719 0.6719
vt 0.1719 0.7266
vt 0.2344 0.6719
vt 0.1172 0.6719
vt 0.5000 0.7031
vt 0.7188 0.8281
vt 0.6406 0.8281
vt 0.7109 0.7969
vt 0.6484 0.7969
vt 0.7344 0.9453
vt 0.5000 0.7266
vt 0.4844 0.9062
vt 0.6406 0.7578
vt 0.6406 0.8359
vn 0.0000 -1.0000 0.0000
vn 0.0000 0.0000 -1.0000
vn -1.0000 -0.0000 -0.0000
vn -0.0000 -0.0000 1.0000
vn 1.0000 -0.0000 0.0000
vn -0.5972 0.5354 0.5972
vn 0.5972 0.5354 -0.5972
vn 0.0000 1.0000 0.0000
vn 0.0000 0.6675 0.7446
vn -0.7446 0.6675 0.0000
vn 0.0000 0.6675 -0.7446
vn -0.5972 0.5354 -0.5972
vn 0.7446 0.6675 0.0000
vn 0.5972 0.5354 0.5972
vn -0.4472 0.8944 -0.0000
vn 0.4472 0.8944 0.0000
usemtl tradingtable
s off
f 8/1/1 10/2/1 19/3/1
f 4/4/2 12/5/2 24/6/2
f 12/7/2 23/8/2 59/9/2
f 15/10/2 26/11/2 56/12/2
f 6/13/2 15/14/2 25/15/2
f 16/16/3 27/17/3 10/18/3
f 11/19/3 28/20/3 3/21/3
f 17/22/4 30/23/4 8/24/4
f 9/25/4 31/26/4 2/27/4
f 72/28/4 14/29/4 69/30/4
f 18/31/5 33/32/5 5/33/5
f 7/34/5 34/35/5 1/36/5
f 19/37/1 4/38/1 6/39/1
f 5/40/1 6/41/1 1/42/1
f 5/43/1 8/44/1 19/45/1
f 50/46/5 35/47/5 18/48/5
f 37/49/4 51/50/4 31/51/4
f 21/52/4 52/53/4 9/54/4
f 38/55/3 54/56/3 28/57/3
f 22/58/3 55/59/3 11/60/3
f 56/61/2 46/62/2 71/63/2
f 25/64/2 39/65/2 57/66/2
f 70/67/2 40/68/2 61/69/2
f 24/70/2 40/71/2 60/72/2
f 41/73/3 62/74/3 27/75/3
f 29/76/3 63/77/3 16/78/3
f 42/79/4 64/80/4 30/81/4
f 32/82/4 65/83/4 17/84/4
f 43/85/5 67/86/5 33/87/5
f 35/88/5 68/89/5 18/90/5
f 69/91/4 42/92/4 65/93/4
f 49/94/4 65/95/4 32/96/4
f 98/97/6 104/98/6 112/99/6
f 119/100/7 122/101/7 130/102/7
f 26/103/2 70/104/2 46/105/2
f 94/106/2 71/107/2 70/108/2
f 39/109/2 71/110/2 58/111/2
f 72/112/4 32/113/4 51/114/4
f 53/115/4 51/116/4 37/117/4
f 84/118/8 74/119/8 78/120/8
f 106/121/8 107/122/8 111/123/8
f 124/124/8 125/125/8 129/126/8
f 72/127/5 93/128/5 102/129/5
f 82/130/2 89/131/2 74/132/2
f 99/133/3 82/134/3 86/135/3
f 83/136/3 90/137/3 116/138/3
f 113/139/4 122/140/4 81/141/4
f 120/142/5 75/143/5 79/144/5
f 105/145/9 100/146/9 110/147/9
f 109/148/10 93/149/10 108/150/10
f 109/151/8 96/152/8 106/121/8
f 14/153/11 109/154/11 106/155/11
f 103/156/12 102/157/12 109/158/12
f 99/159/8 100/160/8 87/161/8
f 107/122/13 99/159/13 95/162/13
f 96/152/8 110/163/8 107/122/8
f 111/123/13 95/162/13 101/164/13
f 97/165/8 101/164/8 48/166/8
f 97/167/11 106/155/11 111/168/11
f 105/145/9 104/169/9 89/170/9
f 108/171/8 105/172/8 96/152/8
f 108/150/10 98/173/10 112/174/10
f 123/175/11 121/176/11 128/177/11
f 127/178/13 90/179/13 126/180/13
f 127/178/8 114/181/8 124/124/8
f 117/182/9 124/183/9 94/184/9
f 117/185/14 116/186/14 127/187/14
f 120/188/8 121/189/8 92/190/8
f 125/191/10 120/192/10 13/193/10
f 114/181/8 128/194/8 125/125/8
f 115/195/10 125/191/10 13/193/10
f 118/196/8 115/197/8 44/198/8
f 94/184/9 129/199/9 118/200/9
f 130/201/11 113/202/11 123/175/11
f 114/181/8 130/102/8 123/203/8
f 90/179/13 130/102/13 126/180/13
f 76/204/1 74/205/1 72/206/1
f 72/207/8 58/208/8 71/209/8
f 52/210/4 53/211/4 37/212/4
f 58/213/2 57/214/2 39/215/2
f 64/216/4 66/217/4 22/218/4
f 61/219/2 59/220/2 23/221/2
f 61/222/15 22/223/15 66/224/15
f 69/225/8 61/226/8 66/227/8
f 53/228/16 20/229/16 58/230/16
f 132/231/5 135/232/5 131/233/5
f 8/1/1 3/234/1 10/2/1
f 24/6/2 15/14/2 6/13/2
f 6/13/2 4/4/2 24/6/2
f 59/9/2 40/235/2 24/236/2
f 24/236/2 12/7/2 59/9/2
f 56/12/2 39/237/2 25/238/2
f 25/238/2 15/10/2 56/12/2
f 25/15/2 7/239/2 1/240/2
f 1/240/2 6/13/2 25/15/2
f 4/241/3 10/18/3 27/17/3
f 27/17/3 12/242/3 4/241/3
f 10/243/3 3/21/3 28/20/3
f 28/20/3 16/244/3 10/243/3
f 3/245/4 8/24/4 30/23/4
f 30/23/4 11/246/4 3/245/4
f 8/24/4 2/27/4 31/26/4
f 31/26/4 17/22/4 8/24/4
f 48/247/4 69/30/4 97/248/4
f 72/28/4 45/249/4 103/250/4
f 14/29/4 97/248/4 69/30/4
f 72/28/4 103/250/4 14/29/4
f 2/251/5 5/33/5 33/32/5
f 33/32/5 9/252/5 2/251/5
f 5/253/5 1/36/5 34/35/5
f 34/35/5 18/254/5 5/253/5
f 19/37/1 10/255/1 4/38/1
f 5/40/1 19/256/1 6/41/1
f 5/43/1 2/257/1 8/44/1
f 18/48/5 34/258/5 50/46/5
f 36/259/5 50/46/5 34/258/5
f 17/260/4 31/51/4 51/50/4
f 51/50/4 32/261/4 17/260/4
f 31/262/4 9/54/4 52/53/4
f 52/53/4 37/263/4 31/262/4
f 16/264/3 28/57/3 54/56/3
f 54/56/3 29/265/3 16/264/3
f 28/266/3 11/60/3 55/59/3
f 55/59/3 38/267/3 28/266/3
f 56/61/2 26/268/2 46/62/2
f 57/66/2 20/269/2 7/270/2
f 7/270/2 25/64/2 57/66/2
f 70/67/2 60/271/2 40/68/2
f 60/72/2 26/272/2 15/273/2
f 15/273/2 24/70/2 60/72/2
f 12/274/3 27/75/3 62/74/3
f 62/74/3 23/275/3 12/274/3
f 27/276/3 16/78/3 63/77/3
f 63/77/3 41/277/3 27/276/3
f 11/278/4 30/81/4 64/80/4
f 64/80/4 22/279/4 11/278/4
f 30/280/4 17/84/4 65/83/4
f 65/83/4 42/281/4 30/280/4
f 9/282/5 33/87/5 67/86/5
f 67/86/5 21/283/5 9/282/5
f 33/284/5 18/90/5 68/89/5
f 68/89/5 43/285/5 33/284/5
f 69/91/4 66/286/4 42/92/4
f 49/94/4 69/287/4 65/95/4
f 98/97/8 91/288/8 104/98/8
f 119/100/8 88/289/8 122/101/8
f 26/103/2 60/290/2 70/104/2
f 70/108/2 47/291/2 117/292/2
f 94/106/2 118/293/2 71/107/2
f 70/108/2 117/292/2 94/106/2
f 44/294/2 71/107/2 118/293/2
f 39/109/2 56/295/2 71/110/2
f 72/112/4 49/296/4 32/113/4
f 53/115/4 72/297/4 51/116/4
f 75/298/8 81/299/8 85/300/8
f 80/301/8 84/118/8 78/120/8
f 75/298/8 85/300/8 77/302/8
f 78/120/8 73/303/8 80/301/8
f 77/302/8 85/300/8 80/301/8
f 84/118/8 82/304/8 74/119/8
f 73/303/8 77/302/8 80/301/8
f 106/121/8 96/152/8 107/122/8
f 124/124/8 114/181/8 125/125/8
f 102/129/5 45/305/5 72/127/5
f 72/127/5 74/306/5 93/128/5
f 98/307/5 93/128/5 74/306/5
f 74/306/5 91/308/5 98/307/5
f 91/309/2 74/132/2 104/310/2
f 82/130/2 87/311/2 100/312/2
f 89/131/2 104/310/2 74/132/2
f 82/130/2 100/312/2 89/131/2
f 69/313/3 48/314/3 101/315/3
f 95/316/3 99/133/3 86/135/3
f 69/313/3 101/315/3 86/135/3
f 87/317/3 82/134/3 99/133/3
f 86/135/3 101/315/3 95/316/3
f 47/318/3 70/319/3 116/138/3
f 83/136/3 81/320/3 119/321/3
f 119/321/3 90/137/3 83/136/3
f 81/320/3 88/322/3 119/321/3
f 116/138/3 70/319/3 83/136/3
f 81/141/4 75/323/4 113/139/4
f 121/324/4 113/139/4 75/323/4
f 75/323/4 92/325/4 121/324/4
f 122/140/4 88/326/4 81/141/4
f 79/144/5 71/327/5 115/328/5
f 115/328/5 13/329/5 79/144/5
f 71/327/5 44/330/5 115/328/5
f 92/331/5 75/143/5 120/142/5
f 79/144/5 13/329/5 120/142/5
f 105/145/9 89/170/9 100/146/9
f 109/148/10 102/332/10 93/149/10
f 109/151/8 108/171/8 96/152/8
f 14/153/11 103/333/11 109/154/11
f 103/156/8 45/334/8 102/157/8
f 99/159/14 110/163/14 100/160/14
f 107/122/13 110/163/13 99/159/13
f 96/152/8 105/172/8 110/163/8
f 111/123/13 107/122/13 95/162/13
f 97/165/7 111/123/7 101/164/7
f 97/167/11 14/153/11 106/155/11
f 105/145/9 112/335/9 104/169/9
f 108/171/8 112/336/8 105/172/8
f 108/150/10 93/149/10 98/173/10
f 123/175/11 113/202/11 121/176/11
f 127/178/13 116/337/13 90/179/13
f 127/178/8 126/180/8 114/181/8
f 117/182/9 127/338/9 124/183/9
f 117/185/8 47/339/8 116/186/8
f 120/188/12 128/340/12 121/189/12
f 125/191/10 128/341/10 120/192/10
f 114/181/8 123/203/8 128/194/8
f 115/195/10 129/342/10 125/191/10
f 118/196/6 129/343/6 115/197/6
f 94/184/9 124/183/9 129/199/9
f 130/201/11 122/344/11 113/202/11
f 114/181/8 126/180/8 130/102/8
f 90/179/13 119/100/13 130/102/13
f 72/207/8 53/345/8 58/208/8
f 52/210/4 21/346/4 53/211/4
f 58/213/2 20/347/2 57/214/2
f 64/216/4 42/348/4 66/217/4
f 61/219/2 40/349/2 59/220/2
f 61/222/15 23/350/15 22/223/15
f 69/225/8 70/351/8 61/226/8
f 53/228/16 21/352/16 20/229/16
f 133/353/5 131/233/5 135/232/5
f 135/232/5 134/354/5 133/353/5
