# Blender v2.75 (sub 0) OBJ File: 'tradingtable.blend'
# www.blender.org
mtllib tradingtable.mtl
g cube
v 0.000000 0.000000 1.000000
v 0.000000 0.875000 1.000000
v 0.000000 0.000000 0.000000
v 0.000000 0.875000 0.000000
v 1.000000 0.000000 1.000000
v 1.000000 0.875000 1.000000
v 1.000000 0.000000 0.000000
v 1.000000 0.875000 0.000000
v 0.000000 1.000000 0.500000
v 0.500000 0.875000 0.000000
v 1.000000 1.000000 0.500000
v 0.500000 0.875000 1.000000
v 0.500000 1.000000 0.500000
v 0.000000 1.000000 0.250000
v 0.750000 0.875000 0.000000
v 1.000000 1.000000 0.750000
v 0.250000 0.875000 1.000000
v 0.000000 1.000000 0.750000
v 0.250000 0.875000 0.000000
v 1.000000 1.000000 0.250000
v 0.750000 0.875000 1.000000
v 0.250000 1.000000 0.500000
v 0.750000 1.000000 0.500000
v 0.500000 1.000000 0.750000
v 0.500000 1.000000 0.250000
v 0.750000 1.000000 0.250000
v 0.750000 1.000000 0.750000
v 0.250000 1.000000 0.750000
v 0.250000 1.000000 0.250000
vt 1.000000 0.116667
vt 1.000000 0.233333
vt 0.916667 0.233333
vt 0.916667 0.116667
vt 0.333333 0.533333
vt 0.500000 0.000000
vt 0.666667 0.533333
vt 0.333333 1.000000
vt 0.000000 0.766667
vt 0.000000 0.533333
vt 0.166667 0.000000
vt 0.500000 0.533333
vt 0.666667 1.000000
vt 1.000000 0.933333
vt 0.666667 0.933333
vt 0.666667 0.466667
vt 1.000000 0.350000
vt 1.000000 0.466666
vt 0.916667 0.466666
vt 0.833333 0.350000
vt 0.833333 0.466666
vt 0.750000 0.466666
vt 0.833333 0.116667
vt 0.833333 0.233333
vt 0.750000 0.233333
vt 0.916667 0.000000
vt 1.000000 0.000000
vt 0.750000 0.116667
vt 0.666667 0.233333
vt 0.750000 0.000000
vt 0.666667 0.116667
vt 0.833333 0.000000
vt 0.750000 0.350000
vt 0.666667 0.350000
vt 0.916667 0.350000
vt 0.416667 0.000000
vt 0.333333 0.066667
vt 0.583333 0.000000
vt 0.666667 0.066667
vt 0.000000 0.883333
vt 0.000000 1.000000
vt 0.000000 0.650000
vt 0.083333 0.000000
vt 0.000000 0.066667
vt 0.250000 0.000000
vt 0.416667 0.533333
vt 0.583333 0.533333
vt 0.666667 0.000000
vn 0.000000 0.894400 -0.447200
vn -1.000000 0.000000 0.000000
vn 0.000000 0.000000 -1.000000
vn 1.000000 0.000000 0.000000
vn 0.000000 0.000000 1.000000
vn 0.000000 -1.000000 0.000000
vn 0.000000 1.000000 0.000000
vn 0.000000 0.894400 0.447200
usemtl tradingtable
s off
f 15/1/1 10/2/1 25/3/1
f 26/4/1 15/1/1 25/3/1
usemtl tradingtable
f 1/5/2 9/6/2 3/7/2
f 3/8/3 10/9/3 7/5/3
f 7/10/4 11/11/4 5/5/4
f 5/8/5 12/12/5 1/13/5
f 3/14/6 7/15/6 5/16/6
f 19/17/1 4/18/1 14/19/1
f 22/20/7 9/21/7 18/22/7
f 23/23/7 13/24/7 24/25/7
f 26/4/7 25/3/7 13/24/7
f 20/26/7 26/4/7 23/23/7
f 8/27/1 15/1/1 26/4/1
f 27/28/8 24/25/8 12/29/8
f 16/30/8 27/28/8 21/31/8
f 11/32/7 23/23/7 27/28/7
f 28/33/8 18/22/8 2/16/8
f 24/25/8 28/33/8 17/34/8
f 13/24/7 22/20/7 28/33/7
f 29/35/7 14/19/7 9/21/7
f 25/3/7 29/35/7 22/20/7
f 10/2/1 19/17/1 29/35/1
f 18/36/2 1/5/2 2/37/2
f 14/38/2 4/39/2 3/7/2
f 3/7/2 9/6/2 14/38/2
f 9/6/2 1/5/2 18/36/2
f 19/40/3 3/8/3 4/41/3
f 15/42/3 8/10/3 7/5/3
f 7/5/3 10/9/3 15/42/3
f 10/9/3 3/8/3 19/40/3
f 20/43/4 7/10/4 8/44/4
f 16/45/4 6/37/4 5/5/4
f 5/5/4 11/11/4 16/45/4
f 11/11/4 7/10/4 20/43/4
f 21/46/5 5/8/5 6/5/5
f 17/47/5 2/7/5 1/13/5
f 1/13/5 12/12/5 17/47/5
f 12/12/5 5/8/5 21/46/5
f 1/18/6 3/14/6 5/16/6
f 29/35/1 19/17/1 14/19/1
f 28/33/7 22/20/7 18/22/7
f 27/28/7 23/23/7 24/25/7
f 23/23/7 26/4/7 13/24/7
f 11/32/7 20/26/7 23/23/7
f 20/26/1 8/27/1 26/4/1
f 21/31/8 27/28/8 12/29/8
f 6/48/8 16/30/8 21/31/8
f 16/30/7 11/32/7 27/28/7
f 17/34/8 28/33/8 2/16/8
f 12/29/8 24/25/8 17/34/8
f 24/25/7 13/24/7 28/33/7
f 22/20/7 29/35/7 9/21/7
f 13/24/7 25/3/7 22/20/7
f 25/3/1 10/2/1 29/35/1
